<?xml version="1.0" standalone="no"?>
<!DOCTYPE svg PUBLIC "-//W3C//DTD SVG 1.1//EN" "http://www.w3.org/Graphics/SVG/1.1/DTD/svg11.dtd" >
<svg xmlns="http://www.w3.org/2000/svg">
<metadata></metadata>
<defs>
<font id="ropa_sans_prolight_italic" horiz-adv-x="1005" >
<font-face units-per-em="2048" ascent="1638" descent="-410" />
<missing-glyph horiz-adv-x="444" />
<glyph horiz-adv-x="0" />
<glyph horiz-adv-x="0" />
<glyph unicode="&#xd;" horiz-adv-x="444" />
<glyph unicode=" "  horiz-adv-x="444" />
<glyph unicode="&#x09;" horiz-adv-x="444" />
<glyph unicode="&#xa0;" horiz-adv-x="444" />
<glyph unicode="!" horiz-adv-x="409" d="M45 51l4 35q5 38 26 56t64 18q42 0 64.5 -21.5t17.5 -56.5l-6 -41q-9 -66 -88 -66q-43 0 -65 21.5t-17 54.5zM123 410l131 1013h133l-151 -1013h-113z" />
<glyph unicode="&#x22;" horiz-adv-x="614" d="M147 879l72 520h119l-72 -520h-119zM430 879l72 520h119l-72 -520h-119z" />
<glyph unicode="#" horiz-adv-x="1110" d="M14 256l15 100h174l78 543h-177l15 100h176l37 256h119l-37 -256h403l37 256h121l-37 -256h176l-14 -100h-176l-76 -543h174l-12 -100h-176l-35 -256h-121l35 256h-404l-35 -256h-118l34 256h-176zM324 356h403l78 543h-404z" />
<glyph unicode="$" horiz-adv-x="907" d="M78 43l16 113q84 -35 157 -54.5t152 -19.5q129 0 195 47.5t78 144.5l4 33q9 85 -29.5 141.5t-130.5 88.5l-153 57q-93 34 -147.5 88t-71.5 126t-1 167q22 138 108.5 207t252.5 73l22 168h109l-25 -172q116 -13 217 -45l-16 -108q-49 15 -74 21.5t-65 15.5t-76 12.5 t-76 3.5q-119 0 -181 -46t-77 -140l-2 -21q-14 -92 24 -152.5t134 -93.5l143 -51q138 -51 193.5 -137.5t38.5 -218.5q-12 -100 -49 -165.5t-114 -104t-198 -44.5l-24 -170h-109l25 173q-131 16 -250 63z" />
<glyph unicode="%" horiz-adv-x="1767" d="M150 901l12 80q23 155 105 227t235 72q151 0 223.5 -86t50.5 -244l-12 -82q-43 -305 -340 -305q-153 0 -226 91t-48 247zM266 891q-15 -107 27.5 -164t140.5 -57q95 0 145.5 48t65.5 156l10 80q29 220 -166 220q-94 0 -146 -49t-67 -154zM408 0l860 1255h131l-862 -1255 h-129zM1030 313l12 80q23 155 105 227t235 72q151 0 224 -86t51 -244l-12 -81q-43 -306 -340 -306q-153 0 -226.5 91t-48.5 247zM1149 303q-15 -107 27.5 -164t140.5 -57q95 0 145.5 48.5t65.5 156.5l10 80q29 219 -166 219q-94 0 -146 -49t-67 -154z" />
<glyph unicode="&#x26;" horiz-adv-x="1095" d="M57 358l6 41q18 110 99.5 188t222.5 109q-101 41 -149 128t-33 196l6 45q21 145 117.5 223t267.5 78q96 0 248 -31l-19 -104q-128 33 -239 33q-121 0 -185 -55t-77 -173l-5 -45q-12 -107 55.5 -183.5t186.5 -76.5h264l25 170h113l-23 -170h149l-14 -98h-149l-84 -596 q-139 -36 -215.5 -49t-165.5 -13q-228 0 -329.5 103t-72.5 280zM174 344q-18 -123 58.5 -193.5t244.5 -70.5q115 0 258 33l74 520h-285q-144 0 -236.5 -69t-107.5 -179z" />
<glyph unicode="'" horiz-adv-x="331" d="M147 879l72 520h119l-72 -520h-119z" />
<glyph unicode="(" horiz-adv-x="456" d="M98 203l138 973q11 73 24.5 124.5t35 91t49.5 62t69 34.5t91.5 11.5t119.5 -10.5l-13 -103q-138 19 -186.5 -17t-65.5 -163l-147 -1030q-19 -134 17.5 -176t175.5 -45l-13 -102q-71 0 -120 6.5t-86.5 22.5t-58.5 41t-31.5 65.5t-9.5 91.5t11 123z" />
<glyph unicode=")" horiz-adv-x="456" d="M-143 -147l14 102q136 -19 184.5 16.5t67.5 163.5l145 1030q19 134 -17.5 176t-176.5 45l14 103q71 0 120 -6.5t86.5 -22.5t58.5 -41t31.5 -65.5t9.5 -91.5t-11 -123l-137 -973q-11 -73 -24.5 -124.5t-35 -91t-49.5 -62t-69 -34.5t-91.5 -11.5t-119.5 10.5z" />
<glyph unicode="*" horiz-adv-x="854" d="M209 1171l35 101l229 -98l-18 249h106l-16 -249l227 98l37 -101l-242 -69l160 -184l-86 -66l-133 209l-133 -209l-86 66l162 186z" />
<glyph unicode="+" horiz-adv-x="808" d="M51 571l15 103h296l46 325h108l-47 -325h297l-12 -103h-299l-47 -327h-107l47 327h-297z" />
<glyph unicode="," horiz-adv-x="423" d="M8 -256l88 236q-24 7 -36 29t-9 50l6 39q9 62 86 62q43 0 65.5 -24t16.5 -66l-4 -33q-4 -29 -22 -74l-99 -219h-92z" />
<glyph unicode="-" horiz-adv-x="716" d="M141 557l15 96h422l-15 -96h-422z" />
<glyph unicode="." horiz-adv-x="423" d="M51 51l4 35q5 38 26 56t64 18q42 0 64.5 -21.5t17.5 -56.5l-6 -41q-9 -66 -88 -66q-43 0 -65 21.5t-17 54.5z" />
<glyph unicode="/" horiz-adv-x="534" d="M-88 0l614 1399h117l-614 -1399h-117z" />
<glyph unicode="0" horiz-adv-x="1026" d="M121 393l65 457q30 213 131 309t275 96q180 0 266.5 -106t56.5 -313l-63 -455q-57 -406 -408 -406q-179 0 -265.5 109t-57.5 309zM238 383q-21 -150 37.5 -226.5t177.5 -76.5q117 0 187 70t91 223l68 475q22 152 -36.5 227.5t-180.5 75.5q-118 0 -186 -68t-91 -223z" />
<glyph unicode="1" horiz-adv-x="595" d="M66 1092l346 139h104l-172 -1231h-119l156 1112h-2l-301 -125z" />
<glyph unicode="2" horiz-adv-x="802" d="M-61 0l12 88l502 539q139 148 161 284l4 29q37 215 -202 215q-58 0 -140.5 -18.5t-144.5 -44.5l12 112q165 51 291 51q168 0 247 -82.5t56 -230.5l-4 -29q-14 -94 -64.5 -180.5t-172.5 -212.5l-400 -418h525l-13 -102h-669z" />
<glyph unicode="3" horiz-adv-x="784" d="M-18 29l12 104q159 -59 278 -59q220 0 256 233l4 35q17 114 -39.5 180t-162.5 66h-199l16 94h195q100 0 166.5 65.5t81.5 180.5q33 233 -187 233q-91 0 -264 -41l15 103q164 32 262 32q156 0 235 -83t60 -230q-14 -111 -72.5 -190t-155.5 -115q89 -34 135 -116t33 -185 l-2 -23q-22 -166 -118 -252t-263 -86q-139 0 -286 54z" />
<glyph unicode="4" horiz-adv-x="847" d="M-55 264l12 86l692 881h131l-123 -864h123l-12 -103h-123l-37 -264h-116l36 264h-583zM88 367h453q21 136 55.5 390.5t44.5 321.5z" />
<glyph unicode="5" horiz-adv-x="903" d="M61 33l15 108q69 -23 162 -42t151 -19q117 0 190 71t91 211l8 46q19 145 -19.5 208.5t-128.5 63.5q-169 0 -333 -176h-88l102 733h602l-16 -104h-484l-73 -490q70 66 155.5 102.5t161.5 36.5q288 0 238 -379l-4 -38q-26 -194 -129.5 -292t-276.5 -98q-159 0 -324 58z" />
<glyph unicode="6" horiz-adv-x="976" d="M119 424l45 332q38 265 147 381t291 116q114 0 264 -41l-16 -106q-156 47 -256 47q-126 0 -203 -92t-108 -309l-17 -121q80 78 165.5 122t160.5 44q142 0 212 -94t46 -275l-10 -68q-26 -195 -122.5 -290t-266.5 -95q-185 0 -274.5 115t-57.5 334zM231 383 q-20 -144 41 -223.5t179 -79.5q114 0 180.5 64t87.5 206l12 84q18 126 -28 191t-140 65q-71 0 -152.5 -45t-158.5 -121z" />
<glyph unicode="7" horiz-adv-x="768" d="M59 0l619 1120v4h-580l15 105h706l-12 -88l-619 -1141h-129z" />
<glyph unicode="8" horiz-adv-x="942" d="M55 344l4 29q15 110 82.5 187.5t186.5 111.5q-80 41 -113 119t-20 176q20 142 111 215t243 73q157 0 242.5 -92.5t60.5 -240.5q-27 -201 -203 -269q98 -37 145 -120.5t33 -192.5l-4 -31q-24 -160 -128.5 -247t-282.5 -87q-186 0 -284 101.5t-73 267.5zM176 348 q-19 -126 47 -198t195 -72q123 0 195 61t87 172l7 35q17 116 -48.5 190t-189.5 74q-119 0 -197.5 -66.5t-93.5 -172.5zM309 942q-15 -108 38.5 -174t152.5 -66q69 0 117.5 24t77 73t40.5 125q12 75 -8 128t-68 80t-120 27q-103 0 -158.5 -52.5t-71.5 -164.5z" />
<glyph unicode="9" horiz-adv-x="972" d="M117 27l14 108q159 -55 275 -55q123 0 191 76t95 268l27 174q-84 -76 -172.5 -121t-161.5 -45q-138 0 -206.5 98.5t-41.5 286.5l8 64q29 194 126 283t272 89q179 0 267.5 -108.5t61.5 -304.5l-59 -412q-33 -245 -131 -349t-283 -104q-61 0 -145.5 16.5t-136.5 35.5z M254 811q-21 -134 25.5 -203t140.5 -69q66 0 149 46.5t164 119.5l23 157q21 137 -40.5 212t-180.5 75q-117 0 -182.5 -61t-86.5 -197z" />
<glyph unicode=":" horiz-adv-x="423" d="M109 444v13l4 35q5 38 26 55.5t64 17.5q45 0 67 -24t13 -62v-14l-7 -41q-5 -33 -25.5 -49.5t-62.5 -16.5q-47 0 -68.5 25t-10.5 61z" />
<glyph unicode=";" horiz-adv-x="425" d="M8 -256l88 236q-24 7 -36 29t-9 50l6 39q9 62 86 62q43 0 65.5 -24t16.5 -66l-4 -33q-4 -29 -22 -74l-99 -219h-92zM158 840l4 34q5 38 26 56t64 18q42 0 64.5 -21.5t17.5 -56.5l-6 -41q-9 -65 -88 -65q-43 0 -65 21.5t-17 54.5z" />
<glyph unicode="&#x3c;" horiz-adv-x="808" d="M43 559l14 111l762 325l-18 -118l-633 -263l559 -266l-16 -117z" />
<glyph unicode="=" horiz-adv-x="808" d="M27 383l14 100h696l-12 -100h-698zM78 752l14 98h699l-15 -98h-698z" />
<glyph unicode="&#x3e;" horiz-adv-x="808" d="M-4 231l18 121l633 262l-561 265l18 116l668 -325l-16 -111z" />
<glyph unicode="?" horiz-adv-x="808" d="M164 1268l14 108q160 47 279 47q170 0 243.5 -81t55.5 -228l-4 -24q-9 -83 -53 -156.5t-136 -161.5l-100 -98q-49 -45 -70 -88t-31 -123l-8 -53h-108l8 55q12 94 41 154.5t94 125.5l123 119q66 65 92 118.5t35 135.5q11 103 -37 155t-166 52q-125 0 -272 -57zM170 51 l4 35q5 38 26 56t64 18q42 0 64.5 -21.5t17.5 -56.5l-6 -41q-9 -66 -90 -66q-42 0 -63.5 21.5t-16.5 54.5z" />
<glyph unicode="@" horiz-adv-x="1933" d="M160 385v205q0 191 51 344.5t150 262.5t251.5 167.5t348.5 58.5q417 0 623 -192t206 -580v-102q0 -247 -102.5 -382.5t-282.5 -135.5q-104 0 -175 57.5t-81 153.5l49 204l-4 5l-6 -2q-65 -213 -164 -314.5t-221 -101.5q-124 0 -182.5 90.5t-36.5 277.5l30 236 q24 181 111 270.5t215 89.5q78 0 150 -42t122 -105l17 123h110l-86 -658q-2 -81 38.5 -129.5t113.5 -48.5q120 0 193 106.5t73 305.5v102q0 664 -710 664q-324 0 -503 -189t-179 -536v-205q0 -324 172 -489.5t503 -165.5h277v-109h-277q-401 0 -597.5 194t-196.5 570z M705 416q-19 -153 13 -215t116 -62q121 0 214 131t132 361l16 125q-49 62 -113.5 99.5t-130.5 37.5q-86 0 -143.5 -64.5t-75.5 -195.5z" />
<glyph unicode="A" horiz-adv-x="1064" d="M-45 0l586 1341h151l271 -1341h-129q-23 144 -62 336h-543q-54 -130 -145 -336h-129zM274 444h480q-41 217 -152 785q-273 -655 -328 -785z" />
<glyph unicode="B" horiz-adv-x="1081" d="M92 -8l168 1364q230 10 320 10q217 0 323 -93.5t88 -250.5l-2 -27q-29 -234 -252 -305q117 -27 179 -115.5t47 -214.5l-5 -34q-44 -351 -493 -351q-100 0 -373 17zM221 94q127 -12 244 -12q348 0 377 256l4 24q15 129 -58 199t-227 70h-274zM301 729h272q123 0 202 69 t93 181l2 22q18 130 -56.5 195.5t-252.5 65.5q-45 0 -194 -9z" />
<glyph unicode="C" horiz-adv-x="974" d="M133 416l64 522q29 232 127.5 330t289.5 98q150 0 304 -53l-17 -113q-164 60 -295 60q-129 0 -199 -71.5t-90 -242.5l-67 -553q-20 -160 39 -233.5t198 -73.5q126 0 295 72l-12 -117q-157 -66 -299 -66q-392 0 -338 441z" />
<glyph unicode="D" horiz-adv-x="1171" d="M94 -8l168 1362q180 12 332 12q249 0 367 -144t86 -411l-43 -346q-62 -490 -566 -490q-152 0 -344 17zM223 94q134 -14 226 -14q184 0 298.5 97.5t135.5 281.5l45 358q29 223 -61.5 334t-280.5 111q-20 0 -219 -7z" />
<glyph unicode="E" horiz-adv-x="983" d="M94 0l164 1341h668l-13 -108h-551l-61 -498h510l-14 -106h-510l-64 -520h551l-12 -109h-668z" />
<glyph unicode="F" horiz-adv-x="942" d="M94 0l164 1341h668l-13 -108h-551l-61 -498h416l-15 -106h-415l-74 -629h-119z" />
<glyph unicode="G" horiz-adv-x="1138" d="M133 412l66 546q26 218 130.5 313t315.5 95q71 0 175 -16.5t181 -38.5l-14 -111q-200 62 -352 62q-148 0 -222 -66.5t-94 -224.5l-71 -582q-40 -307 268 -307q134 0 285 55l61 504h-266l14 113h385l-84 -676q-227 -103 -399 -103q-212 0 -308.5 111t-70.5 326z" />
<glyph unicode="H" horiz-adv-x="1187" d="M94 0l164 1341h119l-74 -593h612l76 593h119l-164 -1341h-119l76 639h-614l-76 -639h-119z" />
<glyph unicode="I" horiz-adv-x="454" d="M94 0l164 1341h119l-164 -1341h-119z" />
<glyph unicode="J" horiz-adv-x="565" d="M-74 2l13 107q75 -27 151 -27q67 0 100.5 35t45.5 129l135 1095h118l-135 -1093q-20 -150 -79 -211.5t-177 -61.5q-80 0 -172 27z" />
<glyph unicode="K" horiz-adv-x="1042" d="M94 0l164 1341h119l-78 -632q381 358 639 632h147l-657 -651l545 -690h-154q-258 362 -524 674l-82 -674h-119z" />
<glyph unicode="L" horiz-adv-x="909" d="M94 0l164 1341h119l-154 -1235h553l-12 -106h-670z" />
<glyph unicode="M" horiz-adv-x="1431" d="M84 0l176 1341h170q155 -654 234 -1089q255 524 499 1089h189l-152 -1341h-119l131 1171l-483 -1032h-149l-226 1030l-151 -1169h-119z" />
<glyph unicode="N" horiz-adv-x="1191" d="M94 0l164 1341h174q241 -649 418 -1196l147 1196h117l-164 -1341h-170l-422 1202l-147 -1202h-117z" />
<glyph unicode="O" horiz-adv-x="1179" d="M133 422l64 518q28 225 138.5 325.5t328.5 100.5q215 0 319 -116t78 -326l-64 -523q-26 -216 -140 -321t-327 -105q-217 0 -320 116t-77 331zM252 406q-20 -159 55 -241.5t230 -82.5t237.5 75.5t102.5 235.5l67 545q20 161 -54 241.5t-235 80.5q-155 0 -236.5 -73.5 t-101.5 -236.5z" />
<glyph unicode="P" horiz-adv-x="1038" d="M94 0l166 1354q222 12 318 12q230 0 343.5 -109t88.5 -299l-4 -24q-23 -187 -145.5 -287t-334.5 -100q-90 0 -243 35l-70 -582h-119zM295 678q128 -29 231 -29q332 0 363 309q22 143 -60 224.5t-258 81.5q-94 0 -204 -9z" />
<glyph unicode="Q" horiz-adv-x="1179" d="M133 422l64 518q28 224 139 325t328 101q216 0 319.5 -117t77.5 -325l-64 -523q-38 -283 -219 -374l217 -68l-10 -111h-33l-336 136q-40 -9 -86 -9q-219 0 -321 117t-76 330zM252 406q-20 -159 54.5 -241.5t230.5 -82.5q155 0 237.5 75.5t102.5 235.5l67 545 q20 162 -54.5 242t-234.5 80q-154 0 -236 -73.5t-102 -236.5z" />
<glyph unicode="R" horiz-adv-x="1103" d="M94 0l166 1354q192 12 326 12q220 0 332 -107.5t90 -281.5l-4 -31q-17 -127 -96.5 -217t-205.5 -127l283 -602h-135q-133 321 -266 584q-139 -9 -299 20l-72 -604h-119zM297 698q112 -20 229 -20q322 0 361 289q20 142 -60.5 219.5t-251.5 77.5q-84 0 -208 -9z" />
<glyph unicode="S" horiz-adv-x="929" d="M82 55l16 119q133 -61 256 -86q70 -4 84 -4q120 0 181.5 51t76.5 164l4 31q15 101 -21 165t-128 101l-191 76q-125 50 -178.5 154t-25.5 243q19 151 115.5 224t273.5 73q59 0 143.5 -13t151.5 -32l-15 -113q-153 39 -213 47q-31 2 -80 2q-229 0 -256 -192l-4 -27 q-27 -194 164 -270l170 -68q129 -51 181 -143.5t32 -237.5l-2 -22q-23 -165 -116 -243.5t-267 -78.5q-76 0 -176 23.5t-176 56.5z" />
<glyph unicode="T" horiz-adv-x="1067" d="M147 1233l15 108h925l-14 -108h-403l-150 -1233h-119l150 1233h-404z" />
<glyph unicode="U" horiz-adv-x="1181" d="M143 416l115 925h121l-117 -940q-20 -153 55.5 -234t231.5 -81q140 0 219.5 74t99.5 231l117 950h119l-115 -940q-28 -217 -138 -321.5t-312 -104.5q-214 0 -318 113t-78 328z" />
<glyph unicode="V" horiz-adv-x="1062" d="M123 1341h121q132 -658 219 -1224q276 603 520 1224h135l-581 -1341h-160z" />
<glyph unicode="W" horiz-adv-x="1718" d="M145 1341h123q87 -654 135 -1210q232 570 457 1210h166q109 -692 164 -1210q186 481 428 1210h133l-485 -1341h-166l-168 1206l-461 -1206h-166z" />
<glyph unicode="X" horiz-adv-x="1028" d="M-39 0l490 692l-301 649h133q129 -276 249 -555q234 320 390 555h143l-463 -653l322 -688h-142q-108 261 -268 590q-227 -338 -410 -590h-143z" />
<glyph unicode="Y" horiz-adv-x="970" d="M123 1341h131q131 -420 223 -751q200 345 410 751h141l-502 -880l-55 -461h-119l56 461z" />
<glyph unicode="Z" horiz-adv-x="972" d="M18 0l11 94l772 1139h-621l15 108h768l-15 -94q-353 -486 -772 -1138h633l-10 -109h-781z" />
<glyph unicode="[" horiz-adv-x="493" d="M53 -145l230 1632h379l-15 -101h-258l-203 -1431h258l-14 -100h-377z" />
<glyph unicode="\" horiz-adv-x="616" d="M31 1399h116l420 -1399h-116z" />
<glyph unicode="]" horiz-adv-x="493" d="M-141 -145l14 100h256l203 1431h-258l12 101h379l-232 -1632h-374z" />
<glyph unicode="^" horiz-adv-x="985" d="M180 825l371 574h104l215 -574h-112l-166 465l-291 -465h-121z" />
<glyph unicode="_" horiz-adv-x="1249" d="M10 -379l15 96h954l-14 -96h-955z" />
<glyph unicode="`" horiz-adv-x="430" d="M61 1378h134l174 -260h-103z" />
<glyph unicode="a" horiz-adv-x="985" d="M102 346l52 320q28 181 113.5 269.5t211.5 88.5q73 0 145 -40t128 -107l16 122h111l-140 -999h-112l14 100l76 299l-4 4l-6 -4q-65 -214 -166.5 -319t-221.5 -105q-125 0 -186 93.5t-31 277.5zM223 360q-25 -150 9 -213t118 -63q124 0 221 142.5t134 371.5l24 186 q-111 136 -237 136q-179 0 -220 -258z" />
<glyph unicode="b" horiz-adv-x="974" d="M121 362l78 551q34 250 43 486h120q-7 -224 -30 -385l-10 -76l-99 -422l4 -4l6 4q70 252 175.5 380t230.5 128q126 0 184 -100.5t23 -296.5l-51 -285q-36 -191 -126 -279t-239 -88q-179 0 -258 98.5t-51 288.5zM238 299q-12 -110 38.5 -165.5t151.5 -55.5q200 0 246 250 l53 288q28 152 -6.5 225.5t-108.5 73.5q-79 0 -155.5 -85.5t-133 -225t-85.5 -305.5z" />
<glyph unicode="c" horiz-adv-x="811" d="M106 348l46 324q49 352 350 352q106 0 227 -37l-18 -106q-110 39 -213 39q-192 0 -228 -240l-43 -330q-37 -268 168 -268q109 0 230 59l-13 -110q-128 -56 -235 -56q-154 0 -225.5 96t-45.5 277z" />
<glyph unicode="d" horiz-adv-x="985" d="M102 346l52 324q30 180 113.5 267t209.5 87q71 0 141 -37.5t125 -101.5l72 514h119l-195 -1399h-112l14 100l76 299l-4 4l-6 -4q-65 -214 -166.5 -319t-221.5 -105q-125 0 -186 93.5t-31 277.5zM223 360q-25 -150 9 -213t118 -63q124 0 219.5 141t132.5 369l27 192 q-111 129 -237 129q-180 0 -220 -253z" />
<glyph unicode="e" horiz-adv-x="905" d="M111 373l24 178q33 234 145 353.5t273 119.5q128 0 200 -65.5t70 -178.5q-3 -165 -152 -278.5t-444 -134.5l-4 -29q-18 -138 26.5 -197t156.5 -59q127 0 284 80l-18 -115q-69 -32 -147.5 -52t-137.5 -20q-170 0 -237.5 96.5t-38.5 301.5zM240 444q131 16 268 62 q194 115 194 264q0 71 -42 111.5t-113 40.5q-104 0 -186 -94.5t-107 -272.5z" />
<glyph unicode="f" horiz-adv-x="589" d="M-158 -379l15 103q71 -23 135 -23q58 0 89.5 35.5t43.5 122.5l145 1040h-149l10 74l152 18l18 133q23 160 93.5 229.5t197.5 69.5q78 0 139 -22l-12 -101q-74 23 -133 23q-70 0 -110 -42t-54 -146l-21 -136h185l-13 -100h-184l-145 -1032q-20 -145 -78.5 -207.5 t-169.5 -62.5q-80 0 -154 24z" />
<glyph unicode="g" horiz-adv-x="987" d="M78 -356l14 108q166 -51 297 -51q106 0 155 43.5t66 151.5l25 163l86 340l-4 4l-6 -4q-67 -215 -167.5 -319.5t-221.5 -104.5q-123 0 -184 93.5t-32 277.5l52 320q28 181 113.5 269.5t211.5 88.5q73 0 145 -40t126 -107l18 122h111l-154 -1093q-23 -168 -101.5 -238.5 t-244.5 -70.5q-148 0 -305 47zM227 360q-25 -151 8.5 -213.5t118.5 -62.5q126 0 223.5 149t133.5 381l22 170q-111 136 -237 136q-179 0 -220 -258z" />
<glyph unicode="h" horiz-adv-x="995" d="M80 0l131 938q30 217 41 461h119q-6 -206 -33 -393l-12 -91l-97 -423l4 -5l7 5q72 257 188.5 394.5t239.5 137.5q121 0 169.5 -86.5t18.5 -288.5l-96 -649h-119l98 655q22 143 -5 200.5t-97 57.5q-81 0 -166 -97t-154.5 -279t-99.5 -408l-18 -129h-119z" />
<glyph unicode="i" horiz-adv-x="444" d="M80 0l139 999h119l-139 -999h-119zM221 1262l6 38q9 68 86 68q42 0 63 -21t17 -59l-6 -39q-9 -65 -86 -65q-41 0 -62.5 20.5t-17.5 57.5z" />
<glyph unicode="j" horiz-adv-x="444" d="M-223 -379l14 105q72 -25 135 -25q58 0 88.5 29.5t40.5 105.5l164 1163h119l-162 -1153q-19 -133 -78.5 -191t-175.5 -58q-79 0 -145 24zM215 1262l6 38q9 68 86 68q42 0 63 -21t17 -59l-6 -39q-9 -65 -86 -65q-41 0 -62.5 20.5t-17.5 57.5z" />
<glyph unicode="k" horiz-adv-x="901" d="M80 0l127 913q35 243 45 486h119q-7 -224 -29 -385l-10 -76l-105 -449l4 -4l7 4q67 247 172 391t237 144q85 0 136 -53.5t51 -143.5q0 -125 -89 -231t-249 -152l237 -444h-135q-60 131 -238 479q91 15 162 51t112.5 83t62 98t20.5 102t-28 80t-73 29q-80 0 -162.5 -102.5 t-145 -276.5t-87.5 -375l-22 -168h-119z" />
<glyph unicode="l" horiz-adv-x="444" d="M80 0l131 938q32 216 43 461h119q-7 -219 -41 -449l-133 -950h-119z" />
<glyph unicode="m" horiz-adv-x="1544" d="M80 0l139 999h111l-25 -165l-78 -342l6 -5l7 5q71 257 185 394.5t234 137.5q192 0 195 -221l-74 -311l4 -5l7 5q71 256 185 394t232 138q121 0 170 -86.5t19 -288.5l-97 -649h-118l96 651q19 103 8.5 161t-35.5 79.5t-71 21.5q-123 0 -245 -223.5t-171 -585.5l-14 -104 h-119l96 651q19 103 8.5 161t-35.5 79.5t-71 21.5q-59 0 -121.5 -56.5t-119 -158t-103.5 -256.5t-72 -338l-14 -104h-119z" />
<glyph unicode="n" horiz-adv-x="1003" d="M80 0l139 999h111l-25 -165l-76 -342l4 -5l7 5q72 257 188.5 394.5t239.5 137.5q121 0 169.5 -86.5t18.5 -288.5l-96 -649h-119l98 655q22 143 -5 200.5t-97 57.5q-128 0 -251 -224.5t-175 -598.5l-12 -90h-119z" />
<glyph unicode="o" horiz-adv-x="976" d="M106 352l44 307q26 184 119.5 274.5t260.5 90.5q174 0 257 -101t57 -276l-41 -301q-50 -371 -381 -371q-176 0 -258.5 99t-57.5 278zM225 342q-18 -126 36.5 -195t164.5 -69q220 0 254 250l47 329q18 126 -37 195.5t-166 69.5t-173 -60.5t-81 -189.5z" />
<glyph unicode="p" horiz-adv-x="980" d="M-4 -379q59 237 110 563l115 815h109l-19 -133l-78 -350l5 -4l6 4q70 253 175 380.5t230 127.5q126 0 183 -100t22 -297l-57 -322q-32 -170 -109 -250t-201 -80q-65 0 -142.5 33.5t-133.5 85.5q-33 -205 -98 -473h-117zM223 182q47 -43 115 -71.5t121 -28.5q89 0 143 56 t78 184l55 294q27 153 -7 226t-107 73q-120 0 -233 -188t-155 -481z" />
<glyph unicode="q" horiz-adv-x="985" d="M102 346l52 320q28 181 113.5 269.5t211.5 88.5q73 0 145 -40t126 -107l18 122h113l-195 -1378h-121l64 438l88 340l-4 4l-6 -4q-65 -214 -166.5 -319t-221.5 -105q-125 0 -186 93.5t-31 277.5zM223 360q-25 -150 9 -213t118 -63q124 0 219.5 141t132.5 369l27 190 q-108 136 -237 136q-179 0 -220 -258z" />
<glyph unicode="r" horiz-adv-x="669" d="M80 0l139 999h111l-25 -165l-78 -342l6 -5l7 5q70 259 180 395.5t223 136.5q19 0 35 -4l-21 -148q-28 7 -53 7q-80 0 -158 -95t-139.5 -270t-91.5 -397l-16 -117h-119z" />
<glyph unicode="s" horiz-adv-x="798" d="M63 49l21 113q78 -42 188 -76q50 -6 88 -6q86 0 132 41t59 123q22 124 -98 182l-174 84q-91 44 -129.5 119.5t-20.5 167.5l4 26q40 201 309 201q100 0 236 -39l-16 -113q-12 4 -47.5 16t-60 20t-44.5 12q-46 4 -80 4q-61 0 -101 -16.5t-60 -46t-27 -75.5 q-19 -124 104 -182l172 -84q86 -43 125 -113t27 -159l-4 -29q-18 -115 -96 -179.5t-210 -64.5q-149 0 -297 74z" />
<glyph unicode="t" horiz-adv-x="692" d="M94 899l10 74l154 20l78 273h72l-37 -267h284l-14 -100h-285l-88 -625q-17 -109 11.5 -151.5t105.5 -42.5q37 0 89 12.5t91 30.5l-14 -105q-37 -18 -91 -30.5t-93 -12.5q-133 0 -187 72t-30 238l90 614h-146z" />
<glyph unicode="u" d="M125 346l94 653h119l-92 -639q-18 -106 -4 -167t45 -85t86 -24q88 0 164 78.5t125 205.5t71 283l47 348h121l-139 -999h-113l8 59l84 340l-4 4l-6 -4q-65 -214 -166.5 -319t-222.5 -105q-127 0 -185.5 91.5t-31.5 279.5z" />
<glyph unicode="v" horiz-adv-x="874" d="M88 999h115q95 -483 155 -895l4 -4l7 4q229 469 403 895h131l-473 -999h-149z" />
<glyph unicode="w" horiz-adv-x="1374" d="M109 999h122q41 -452 56 -886l6 -4l4 4q160 366 367 886h157q72 -452 117 -886l4 -4l6 4q158 419 305 886h127l-370 -999h-154l-127 889l-377 -889h-151z" />
<glyph unicode="x" horiz-adv-x="827" d="M-61 0l389 516l-228 483h131q118 -253 179 -393l4 -4l6 4q134 181 276 393h146l-363 -483l248 -516h-133q-78 192 -193 430l-4 4l-6 -4q-128 -191 -307 -430h-145z" />
<glyph unicode="y" d="M96 -356l15 108q166 -51 297 -51q106 0 155 44t66 151l24 163l88 340l-4 4l-6 -4q-65 -214 -166.5 -319t-222.5 -105q-127 0 -185.5 91.5t-31.5 279.5l94 653h119l-92 -639q-18 -106 -4 -167t45 -85t86 -24q88 0 164 78.5t125 205.5t71 283l47 348h121l-153 -1093 q-23 -169 -102 -239t-245 -70q-148 0 -305 47z" />
<glyph unicode="z" horiz-adv-x="823" d="M4 0l12 92l598 801h-477l17 106h630l-12 -92q-304 -364 -602 -798h489l-14 -109h-641z" />
<glyph unicode="{" horiz-adv-x="503" d="M20 627l13 102h51q73 0 110.5 44t51.5 140l37 256q21 150 60 222.5t114.5 95t214.5 2.5l-15 -103q-139 19 -186.5 -17.5t-67.5 -178.5l-38 -277q-15 -103 -52 -159t-102 -76q60 -22 80 -76.5t6 -159.5l-39 -266q-19 -135 19 -178t176 -43l-13 -100q-71 0 -120.5 6 t-87 22.5t-58.5 41t-31.5 65t-10 91.5t10.5 124l35 237q12 97 -11 141t-95 44h-52z" />
<glyph unicode="|" horiz-adv-x="434" d="M51 -176l242 1728h121l-244 -1728h-119z" />
<glyph unicode="}" horiz-adv-x="503" d="M-143 -147l14 102q138 -19 186 18t68 179l39 290q13 103 50.5 159t102.5 77q-60 22 -80.5 76.5t-5.5 158.5l37 252q19 135 -18.5 178t-175.5 43l12 101q71 0 120.5 -6t87.5 -22.5t59 -41t31.5 -65t9.5 -92t-11 -123.5l-33 -224q-14 -96 10.5 -140t96.5 -44h51l-14 -102 h-52q-73 0 -110 -44t-49 -141l-37 -270q-21 -150 -60.5 -222.5t-115 -94.5t-213.5 -2z" />
<glyph unicode="~" horiz-adv-x="808" d="M49 547l14 102q11 6 29.5 15.5t73 25t104.5 15.5q72 0 150.5 -32t142.5 -32q34 0 84.5 12.5t84.5 24.5l34 12l-14 -104q-11 -6 -29.5 -15t-73 -24t-104.5 -15q-71 0 -148.5 32t-144.5 32q-34 0 -84.5 -12t-84.5 -24z" />
<glyph unicode="&#xa2;" horiz-adv-x="792" d="M92 348l45 324q47 331 314 350l20 158h107l-21 -160q62 -5 158 -33l-19 -106q-110 39 -213 39q-191 0 -227 -240l-43 -330q-37 -268 168 -268q108 0 229 59l-12 -110q-94 -42 -186 -51l-23 -160h-106l22 160q-124 17 -180 111.5t-33 256.5z" />
<glyph unicode="&#xa3;" horiz-adv-x="794" d="M18 0l11 86q96 99 114 248l41 311h-143l12 103h144l28 206q23 161 98.5 231t221.5 70q42 0 108.5 -11t108.5 -25l-14 -105q-40 15 -100 27t-103 12q-94 0 -141 -43.5t-60 -148.5l-27 -213h224l-15 -103h-223l-37 -272q-15 -108 -39.5 -165.5t-74.5 -101.5h561l-13 -106 h-682z" />
<glyph unicode="&#xa5;" horiz-adv-x="860" d="M90 1231h129q108 -341 199 -682q229 386 391 682h141l-442 -715h178l-14 -98h-207l-16 -115h206l-14 -100h-207l-26 -203h-119l26 203h-206l14 100h207l16 115h-207l15 98h174z" />
<glyph unicode="&#xa8;" horiz-adv-x="585" d="M63 1260l5 36q9 66 84 66q40 0 59.5 -19.5t15.5 -56.5l-6 -37q-9 -63 -80 -63q-40 0 -62 20.5t-16 53.5zM360 1260l5 36q9 66 84 66q39 0 59 -20t16 -56l-6 -37q-9 -63 -80 -63q-40 0 -62 20.5t-16 53.5z" />
<glyph unicode="&#xa9;" horiz-adv-x="1323" d="M133 428l57 414q31 220 159 320t380 100q257 0 376.5 -121t92.5 -338l-57 -414q-31 -217 -158.5 -318.5t-380.5 -101.5q-261 0 -379.5 123.5t-89.5 335.5zM236 406q-22 -159 75 -249.5t297 -90.5q381 0 426 309l62 450q23 158 -74.5 249t-296.5 91q-198 0 -301 -77 t-125 -232zM420 555l22 168q20 139 86 199.5t191 60.5q80 0 164 -25l-17 -98q-83 27 -145 27q-72 0 -112 -39t-52 -129l-22 -168q-25 -189 114 -189q75 0 162 33l-10 -98q-81 -33 -166 -33q-123 0 -179.5 74t-35.5 217z" />
<glyph unicode="&#xab;" horiz-adv-x="907" d="M150 549l253 348h121l-239 -348l139 -348h-121zM436 549l254 348h121l-240 -348l140 -348h-121z" />
<glyph unicode="&#xad;" horiz-adv-x="716" d="M141 557l15 96h422l-15 -96h-422z" />
<glyph unicode="&#xae;" horiz-adv-x="1089" d="M215 1008l10 69q27 185 118 265.5t288 80.5q202 0 293.5 -103.5t66.5 -293.5l-8 -68q-27 -186 -120.5 -267t-293.5 -81q-198 0 -289.5 106t-64.5 292zM291 985q-20 -142 52.5 -221.5t227.5 -79.5q159 0 234.5 58.5t95.5 199.5l14 109q20 142 -54.5 220.5t-231.5 78.5 q-159 0 -232 -59t-92 -199zM424 784l68 463q73 8 137 8q91 0 130 -45.5t27 -122.5q-12 -86 -108 -116l88 -187h-84q-38 94 -78 174q-46 0 -82 7l-24 -181h-74zM532 1026q31 -4 74 -4q54 0 78.5 20.5t32.5 61.5q6 40 -16 63t-74 23q-34 0 -74 -4z" />
<glyph unicode="&#xb4;" horiz-adv-x="430" d="M61 1118l175 260h133l-203 -260h-105z" />
<glyph unicode="&#xb8;" horiz-adv-x="425" d="M61 -385l11 84q54 -21 106 -21q42 0 61 19.5t25 62.5q15 90 -86 90h-57l4 35l70 148h81l-53 -119h13q71 0 103 -47t21 -123q-21 -147 -178 -147q-58 0 -121 18z" />
<glyph unicode="&#xbb;" horiz-adv-x="907" d="M100 201l240 348l-141 348h120l154 -348l-252 -348h-121zM389 201l240 348l-142 348h121l154 -348l-252 -348h-121z" />
<glyph unicode="&#x2c6;" horiz-adv-x="632" d="M61 1139l15 104l266 139l229 -145l-14 -98l-225 129z" />
<glyph unicode="&#x2da;" horiz-adv-x="540" d="M61 1268q0 89 58.5 142.5t161.5 53.5q90 0 144 -44.5t54 -121.5q0 -89 -58 -144.5t-161 -55.5q-90 0 -144.5 44.5t-54.5 125.5zM152 1274q0 -47 29 -73.5t83 -26.5q125 0 125 120q0 45 -29 71t-81 26q-127 0 -127 -117z" />
<glyph unicode="&#x2dc;" horiz-adv-x="628" d="M61 1194l15 100q8 6 21.5 15.5t54 25t79.5 15.5q51 0 104.5 -26t78.5 -26q30 0 68.5 12t61.5 24l23 12l-14 -105q-8 -6 -21.5 -14.5t-54.5 -22.5t-80 -14q-36 0 -93 25.5t-91 25.5q-30 0 -68 -11.5t-61 -23.5z" />
<glyph unicode="&#x401;" horiz-adv-x="983" d="M94 0l164 1341h668l-13 -108h-551l-61 -498h510l-14 -106h-510l-64 -520h551l-12 -109h-668zM373 1552l4 37q4 35 23.5 50.5t58.5 15.5q40 0 60.5 -19t17.5 -55l-7 -39q-3 -33 -21 -48t-56 -15q-39 0 -62.5 20t-17.5 53zM670 1552l4 37q4 35 23.5 50.5t58.5 15.5t60 -19 t18 -55l-7 -39q-6 -63 -77 -63q-41 0 -63.5 20t-16.5 53z" />
<glyph unicode="&#x402;" horiz-adv-x="1431" d="M147 1233l15 108h925l-14 -108h-403l-54 -422q180 63 318 63q197 0 293 -113.5t67 -330.5l-24 -190q-19 -144 -78.5 -204.5t-181.5 -60.5q-63 0 -168 27l12 107q83 -27 154 -27q66 0 99.5 34.5t43.5 121.5l27 206q21 163 -50 245.5t-215 82.5q-73 0 -158 -18.5 t-149 -44.5l-86 -709h-121l152 1233h-404z" />
<glyph unicode="&#x403;" horiz-adv-x="897" d="M94 0l164 1341h660l-15 -108h-541l-149 -1233h-119zM516 1450l160 233h129l-187 -233h-102z" />
<glyph unicode="&#x404;" horiz-adv-x="985" d="M133 416l64 522q29 232 128 330t289 98q150 0 304 -53l-17 -113q-164 60 -295 60q-129 0 -199 -71.5t-90 -242.5l-26 -205h506l-15 -108h-503l-29 -240q-20 -161 39 -234t198 -73q126 0 295 72l-12 -117q-157 -66 -299 -66q-392 0 -338 441z" />
<glyph unicode="&#x405;" horiz-adv-x="929" d="M82 55l16 119q133 -61 256 -86q70 -4 84 -4q120 0 181.5 51t76.5 164l4 31q15 101 -21 165t-128 101l-191 76q-125 50 -178.5 154t-25.5 243q19 151 115.5 224t273.5 73q59 0 143.5 -13t151.5 -32l-15 -113q-153 39 -213 47q-31 2 -80 2q-229 0 -256 -192l-4 -27 q-27 -194 164 -270l170 -68q129 -51 181 -143.5t32 -237.5l-2 -22q-23 -165 -116 -243.5t-267 -78.5q-76 0 -176 23.5t-176 56.5z" />
<glyph unicode="&#x406;" horiz-adv-x="454" d="M94 0l164 1341h119l-164 -1341h-119z" />
<glyph unicode="&#x407;" horiz-adv-x="454" d="M94 0l164 1341h119l-164 -1341h-119zM102 1552l4 37q4 35 23.5 50.5t58.5 15.5q40 0 60.5 -19t17.5 -55l-6 -39q-6 -63 -78 -63q-39 0 -62.5 20t-17.5 53zM399 1552l4 37q4 35 23.5 50.5t58.5 15.5t60 -19t18 -55l-6 -39q-6 -63 -78 -63q-41 0 -63.5 20t-16.5 53z" />
<glyph unicode="&#x408;" horiz-adv-x="565" d="M-74 2l13 107q75 -27 151 -27q67 0 100.5 35t45.5 129l135 1095h118l-135 -1093q-20 -150 -79 -211.5t-177 -61.5q-80 0 -172 27z" />
<glyph unicode="&#x409;" horiz-adv-x="1744" d="M-82 -12l10 102q33 -10 78 -10q54 0 87 51t52 193l82 620q31 223 141.5 322.5t323.5 99.5q132 0 369 -55l-68 -557q133 20 230 20q219 0 328 -105.5t87 -287.5l-4 -31q-48 -375 -497 -375q-142 0 -357 23l150 1231q-130 35 -244 35q-153 0 -235 -74.5t-105 -243.5 l-80 -612q-27 -200 -88.5 -279.5t-173.5 -79.5q-36 0 -86 13zM911 94q128 -16 226 -16q336 0 374 282l5 23q19 141 -62.5 215t-261.5 74q-52 0 -213 -17z" />
<glyph unicode="&#x40a;" horiz-adv-x="1792" d="M94 0l164 1341h119l-74 -593h612l76 593h119l-72 -589q156 20 230 20q218 0 327.5 -106t87.5 -285l-4 -31q-48 -375 -497 -375q-140 0 -359 23l80 641h-614l-76 -639h-119zM956 96q120 -18 226 -18q174 0 266 71t111 211l2 23q19 138 -62.5 212.5t-259.5 74.5 q-80 0 -215 -19z" />
<glyph unicode="&#x40b;" horiz-adv-x="1423" d="M147 1233l15 108h925l-14 -108h-403l-54 -424q182 65 322 65q192 0 284.5 -112t65.5 -330l-51 -432h-119l51 436q21 174 -44.5 255t-211.5 81q-73 0 -158 -18.5t-149 -44.5l-86 -709h-119l150 1233h-404z" />
<glyph unicode="&#x40c;" horiz-adv-x="1048" d="M94 0l164 1341h119l-74 -600h186q155 196 445 600h139l-483 -643l379 -698h-146q-154 325 -327 633h-207l-76 -633h-119zM549 1450l160 233h129l-187 -233h-102z" />
<glyph unicode="&#x40e;" horiz-adv-x="976" d="M121 1341h131q135 -422 235 -774q181 316 420 774h135l-757 -1341h-123l254 449zM324 1544l14 117q4 -4 12 -11t34.5 -24t54 -30t68.5 -24t81 -11q63 0 131 25t105 50l36 25l-14 -117q-5 -4 -13.5 -9.5t-37 -21t-58 -27t-74 -21t-88.5 -9.5t-86 9t-70.5 22t-51 26 t-33.5 22z" />
<glyph unicode="&#x40f;" horiz-adv-x="1187" d="M94 0l164 1341h119l-154 -1232h615l153 1232h119l-164 -1341h-377l-34 -266h-117l35 266h-359z" />
<glyph unicode="&#x410;" horiz-adv-x="1064" d="M-45 0l586 1341h151l271 -1341h-129q-23 144 -62 336h-543q-54 -130 -145 -336h-129zM274 444h480q-41 217 -152 785q-273 -655 -328 -785z" />
<glyph unicode="&#x411;" horiz-adv-x="1062" d="M94 -2l168 1343h658l-13 -108h-540l-60 -479q133 20 232 20q218 0 327 -105.5t86 -287.5l-4 -31q-48 -375 -497 -375q-139 0 -357 23zM227 96q120 -18 226 -18q174 0 265.5 70.5t110.5 211.5l2 23q19 141 -62 215t-259 74q-53 0 -215 -17z" />
<glyph unicode="&#x412;" horiz-adv-x="1081" d="M92 -8l168 1364q230 10 320 10q217 0 323 -93.5t88 -250.5l-2 -27q-29 -234 -252 -305q117 -27 179 -115.5t47 -214.5l-5 -34q-44 -351 -493 -351q-100 0 -373 17zM221 94q127 -12 244 -12q348 0 377 256l4 24q15 129 -58 199t-227 70h-274zM301 729h272q123 0 202 69 t93 181l2 22q18 130 -56.5 195.5t-252.5 65.5q-45 0 -194 -9z" />
<glyph unicode="&#x413;" horiz-adv-x="897" d="M94 0l164 1341h660l-15 -108h-541l-149 -1233h-119z" />
<glyph unicode="&#x414;" horiz-adv-x="1171" d="M94 -8l168 1362q180 12 332 12q249 0 367 -144t86 -411l-43 -346q-62 -490 -566 -490q-152 0 -344 17zM223 94q134 -14 226 -14q184 0 298.5 97.5t135.5 281.5l45 358q29 223 -61.5 334t-280.5 111q-20 0 -219 -7z" />
<glyph unicode="&#x415;" horiz-adv-x="983" d="M94 0l164 1341h668l-13 -108h-551l-61 -498h510l-14 -106h-510l-64 -520h551l-12 -109h-668z" />
<glyph unicode="&#x416;" horiz-adv-x="1613" d="M-16 0l432 694l-250 647h125q101 -252 223 -600h250l76 600h118l-75 -600h241q220 340 375 600h131l-407 -651l262 -690h-137q-106 323 -234 633h-244l-75 -633h-119l76 633h-246q-187 -318 -387 -633h-135z" />
<glyph unicode="&#x417;" horiz-adv-x="960" d="M31 53l18 113q84 -38 176.5 -60t165.5 -22q139 0 214.5 63.5t92.5 192.5l2 27q15 126 -60.5 198t-225.5 72h-166l12 102h166q277 0 313 246l4 23q17 120 -54 186t-226 66q-127 0 -279 -46l6 111q175 41 287 41q210 0 309.5 -95.5t75.5 -262.5l-4 -31q-14 -103 -80.5 -181 t-167.5 -106q106 -31 163.5 -120t45.5 -214l-4 -32q-15 -163 -126 -256t-304 -93q-74 0 -173 21.5t-181 56.5z" />
<glyph unicode="&#x418;" horiz-adv-x="1187" d="M94 0l164 1341h119l-139 -1132q343 494 739 1132h133l-164 -1341h-119l140 1133l-744 -1133h-129z" />
<glyph unicode="&#x419;" horiz-adv-x="1187" d="M94 0l164 1341h119l-139 -1132q343 494 739 1132h133l-164 -1341h-119l140 1133l-744 -1133h-129zM444 1544l15 117q4 -4 12 -11t34.5 -24t54 -30t68.5 -24t81 -11q63 0 131 25t104 50l37 25l-14 -117q-5 -4 -13.5 -9.5t-37 -21t-58 -27t-74 -21t-88.5 -9.5 q-69 0 -132 22t-92 44z" />
<glyph unicode="&#x41a;" horiz-adv-x="1048" d="M94 0l164 1341h119l-74 -600h186q155 196 445 600h139l-483 -643l379 -698h-146q-154 325 -327 633h-207l-76 -633h-119z" />
<glyph unicode="&#x41b;" horiz-adv-x="1140" d="M-82 -12l10 102q33 -10 78 -10q54 0 87 51t52 193l82 620q31 223 141.5 322.5t323.5 99.5q156 0 367 -55l-158 -1311h-119l148 1229q-130 35 -244 35q-153 0 -235 -74.5t-105 -243.5l-80 -612q-27 -200 -88.5 -279.5t-173.5 -79.5q-36 0 -86 13z" />
<glyph unicode="&#x41c;" horiz-adv-x="1431" d="M84 0l176 1341h170q155 -654 234 -1089q255 524 499 1089h189l-152 -1341h-119l131 1171l-483 -1032h-149l-226 1030l-151 -1169h-119z" />
<glyph unicode="&#x41d;" horiz-adv-x="1187" d="M94 0l164 1341h119l-74 -593h612l76 593h119l-164 -1341h-119l76 639h-614l-76 -639h-119z" />
<glyph unicode="&#x41e;" horiz-adv-x="1179" d="M133 422l64 518q28 225 138.5 325.5t328.5 100.5q215 0 319 -116t78 -326l-64 -523q-26 -216 -140 -321t-327 -105q-217 0 -320 116t-77 331zM252 406q-20 -159 55 -241.5t230 -82.5t237.5 75.5t102.5 235.5l67 545q20 161 -54 241.5t-235 80.5q-155 0 -236.5 -73.5 t-101.5 -236.5z" />
<glyph unicode="&#x41f;" horiz-adv-x="1187" d="M94 0l164 1341h852l-164 -1341h-119l150 1233h-615l-149 -1233h-119z" />
<glyph unicode="&#x420;" horiz-adv-x="1038" d="M94 0l166 1354q222 12 318 12q230 0 343.5 -109t88.5 -299l-4 -24q-23 -187 -145.5 -287t-334.5 -100q-90 0 -243 35l-70 -582h-119zM295 678q128 -29 231 -29q332 0 363 309q22 143 -60 224.5t-258 81.5q-94 0 -204 -9z" />
<glyph unicode="&#x421;" horiz-adv-x="974" d="M133 416l64 522q29 232 127.5 330t289.5 98q150 0 304 -53l-17 -113q-164 60 -295 60q-129 0 -199 -71.5t-90 -242.5l-67 -553q-20 -160 39 -233.5t198 -73.5q126 0 295 72l-12 -117q-157 -66 -299 -66q-392 0 -338 441z" />
<glyph unicode="&#x422;" horiz-adv-x="1067" d="M147 1233l15 108h925l-14 -108h-403l-150 -1233h-119l150 1233h-404z" />
<glyph unicode="&#x423;" horiz-adv-x="976" d="M121 1341h131q135 -422 235 -774q181 316 420 774h135l-757 -1341h-123l254 449z" />
<glyph unicode="&#x424;" horiz-adv-x="1564" d="M147 522l43 342q29 248 138 350.5t334 102.5q45 0 139 -12l14 118h119l-14 -116q75 10 135 10q220 0 313 -115.5t62 -380.5l-41 -342q-30 -250 -141.5 -352t-340.5 -102q-69 0 -143 12l-14 -123h-119l14 121q-75 -10 -131 -10q-219 0 -309 116.5t-58 380.5zM262 496 q-23 -197 43.5 -284t220.5 -87q43 0 133 8l132 1071q-76 13 -140 13q-163 0 -240 -73.5t-100 -260.5zM778 135q78 -10 144 -10q165 0 242.5 72t101.5 262l49 387q25 196 -44.5 282t-226.5 86q-63 0 -135 -10z" />
<glyph unicode="&#x425;" horiz-adv-x="1028" d="M-39 0l490 692l-301 649h133q129 -276 249 -555q234 320 390 555h143l-463 -653l322 -688h-142q-108 261 -268 590q-227 -338 -410 -590h-143z" />
<glyph unicode="&#x426;" horiz-adv-x="1179" d="M94 0l164 1341h119l-154 -1232h606l154 1232h119l-154 -1232h123l-45 -375h-119l35 266h-848z" />
<glyph unicode="&#x427;" horiz-adv-x="1153" d="M182 891l56 450h118l-55 -454q-20 -158 52.5 -238t226.5 -80q145 0 288 47l88 725h119l-164 -1341h-118l63 516q-188 -49 -299 -49q-203 0 -302 107.5t-73 316.5z" />
<glyph unicode="&#x428;" horiz-adv-x="1546" d="M94 0l164 1341h119l-154 -1232h428l154 1232h119l-154 -1232h426l154 1232h118l-163 -1341h-1211z" />
<glyph unicode="&#x429;" horiz-adv-x="1546" d="M94 0l164 1341h119l-154 -1232h428l154 1232h119l-154 -1232h426l154 1232h118l-153 -1232h123l-45 -375h-117l35 266h-1217z" />
<glyph unicode="&#x42a;" horiz-adv-x="1310" d="M127 1229l14 112h488l-74 -587q133 20 231 20q218 0 327.5 -106t86.5 -287l-4 -31q-45 -375 -498 -375q-138 0 -356 23l154 1231h-369zM475 96q120 -18 225 -18q174 0 266 71t111 211l2 23q19 141 -62 215t-259 74q-53 0 -215 -17z" />
<glyph unicode="&#x42b;" horiz-adv-x="1454" d="M94 -2l168 1343h119l-74 -587q133 20 232 20q218 0 327 -105.5t86 -287.5l-4 -31q-48 -375 -497 -375q-139 0 -357 23zM227 96q120 -18 226 -18q174 0 265.5 70.5t110.5 211.5l2 23q19 141 -62 215t-259 74q-53 0 -215 -17zM1094 0l163 1341h119l-164 -1341h-118z" />
<glyph unicode="&#x42c;" horiz-adv-x="1062" d="M94 -2l168 1343h119l-74 -587q133 20 232 20q218 0 327 -105.5t86 -287.5l-4 -31q-48 -375 -497 -375q-139 0 -357 23zM227 96q120 -18 226 -18q174 0 265.5 70.5t110.5 211.5l2 23q19 141 -62 215t-259 74q-53 0 -215 -17z" />
<glyph unicode="&#x42d;" horiz-adv-x="997" d="M80 53l18 109q77 -35 167 -58.5t161 -23.5q114 0 178 64.5t82 215.5l33 275h-512l14 106h510l27 211q20 167 -39 238.5t-205 71.5q-131 0 -287 -54l9 113q157 45 288 45q203 0 291.5 -106t61.5 -326l-72 -569q-27 -211 -118 -300.5t-265 -89.5q-71 0 -166 21.5t-176 56.5 z" />
<glyph unicode="&#x42e;" horiz-adv-x="1579" d="M94 0l164 1341h119l-74 -596h334l25 197q29 229 129 326.5t299 97.5q203 0 300 -115.5t70 -337.5l-63 -507q-28 -226 -131 -328.5t-303 -102.5q-207 0 -300.5 115.5t-66.5 329.5l27 217h-334l-76 -637h-119zM713 403q-20 -161 46 -241t210 -80q141 0 214.5 71t94.5 240 l65 545q21 164 -47.5 244t-212.5 80q-137 0 -210.5 -72t-94.5 -240z" />
<glyph unicode="&#x42f;" horiz-adv-x="1093" d="M-8 0l362 612q-112 53 -160.5 153.5t-33.5 238.5q19 173 145 267.5t359 94.5q121 0 354 -23l-164 -1343h-119l68 588q-129 -21 -219 -21q-63 0 -123 13q-204 -334 -332 -580h-137zM276 983q-21 -140 65.5 -227.5t254.5 -87.5q108 0 221 22l68 557q-150 17 -238 17 q-329 0 -368 -258z" />
<glyph unicode="&#x430;" horiz-adv-x="985" d="M102 346l52 320q28 181 113.5 269.5t211.5 88.5q73 0 145 -40t128 -107l16 122h111l-140 -999h-112l14 100l76 299l-4 4l-6 -4q-65 -214 -166.5 -319t-221.5 -105q-125 0 -186 93.5t-31 277.5zM223 360q-25 -150 9 -213t118 -63q124 0 221 142.5t134 371.5l24 186 q-111 136 -237 136q-179 0 -220 -258z" />
<glyph unicode="&#x431;" horiz-adv-x="993" d="M131 362l88 639q13 90 39.5 156.5t75.5 119.5t122.5 85t178.5 49t246 16l-13 -100q-184 2 -295 -30.5t-163.5 -97.5t-67.5 -175l-12 -86l-97 -422l5 -4l6 4q65 237 169.5 361t229.5 124q126 0 184 -101t23 -296l-45 -262q-35 -189 -126 -278t-241 -89q-179 0 -257 98.5 t-50 288.5zM248 299q-12 -108 38 -164.5t150 -56.5q202 0 248 250l47 266q28 150 -6.5 224.5t-108.5 74.5q-119 0 -222.5 -171.5t-145.5 -422.5z" />
<glyph unicode="&#x432;" horiz-adv-x="980" d="M131 373l102 719q25 179 99.5 255t220.5 76q140 0 214.5 -86t57.5 -221l-4 -33q-9 -85 -55 -147.5t-123 -91.5q104 -21 155.5 -110.5t30.5 -239.5l-22 -175q-46 -344 -369 -344q-173 0 -254 103t-53 295zM244 322q-17 -115 37 -179.5t165 -64.5q206 0 240 223l25 184 q19 143 -20 213t-116 70q-66 0 -146.5 -54t-152.5 -147zM295 682q52 63 113 103.5t106 58.5t86.5 40.5t69 66.5t39.5 118l4 29q15 104 -32 164.5t-136 60.5q-82 0 -128 -50t-63 -167z" />
<glyph unicode="&#x433;" horiz-adv-x="802" d="M37 266l4 25q12 76 61 131.5t146 95.5l209 88q46 18 74.5 35.5t44.5 38.5t23 41.5t11 52.5q9 72 -32.5 109t-141.5 37q-92 0 -252 -41l11 114q152 31 260 31q155 0 223.5 -67.5t50.5 -190.5l-4 -23q-9 -78 -57 -132.5t-154 -98.5l-221 -94q-69 -29 -100 -65.5t-37 -86.5 l-4 -22q-9 -76 41 -118t161 -42q102 0 256 53l-20 -117q-149 -45 -252 -45q-169 0 -246 77t-55 214z" />
<glyph unicode="&#x434;" horiz-adv-x="954" d="M100 369l35 247q26 182 107.5 278.5t195.5 96.5q95 0 169.5 -96.5t101.5 -245.5l10 82q15 102 5 184.5t-35 144.5t-77 111.5t-121.5 86t-166.5 67.5l24 96q197 -64 308 -156t151.5 -236t9.5 -355l-47 -309q-29 -191 -118.5 -290.5t-231.5 -99.5q-175 0 -260.5 105.5 t-59.5 288.5zM215 342q-17 -121 40 -192.5t163 -71.5q93 0 155 70t82 200l21 141q-5 106 -33.5 196t-78 146t-109.5 56q-160 0 -203 -293z" />
<glyph unicode="&#x435;" horiz-adv-x="905" d="M111 373l24 178q33 234 145 353.5t273 119.5q128 0 200 -65.5t70 -178.5q-3 -165 -152 -278.5t-444 -134.5l-4 -29q-18 -138 26.5 -197t156.5 -59q127 0 284 80l-18 -115q-69 -32 -147.5 -52t-137.5 -20q-170 0 -237.5 96.5t-38.5 301.5zM240 444q131 16 268 62 q194 115 194 264q0 71 -42 111.5t-113 40.5q-104 0 -186 -94.5t-107 -272.5z" />
<glyph unicode="&#x436;" horiz-adv-x="1241" d="M-51 0l364 543l-198 456h123q96 -223 172 -415h151l51 354q28 200 39 461h119q-11 -233 -41 -449l-51 -366h143q168 220 293 415h129l-328 -456l215 -543h-124q-107 301 -189 485h-151l-68 -485h-117l66 485h-146q-174 -279 -323 -485h-129z" />
<glyph unicode="&#x437;" horiz-adv-x="802" d="M-61 -348l14 110q63 -25 148.5 -43t148.5 -18q106 0 155.5 46.5t67.5 170.5l16 119q23 143 -26 212.5t-156 69.5h-162l15 103h155q102 0 166.5 55.5t81.5 159.5l10 57q18 114 -28.5 172t-147.5 58q-95 0 -243 -39l10 106q154 33 256 33q154 0 224.5 -86.5t43.5 -235.5 l-12 -69q-15 -97 -75.5 -166.5t-154.5 -95.5q94 -29 138.5 -118.5t21.5 -229.5l-16 -111q-26 -173 -103.5 -244t-238.5 -71q-61 0 -151 16.5t-158 38.5z" />
<glyph unicode="&#x438;" d="M125 346l94 653h119l-92 -639q-18 -106 -4 -167t45 -85t86 -24q88 0 164 78.5t125 205.5t71 283l47 348h121l-139 -999h-113l8 59l84 340l-4 4l-6 -4q-65 -214 -166.5 -319t-222.5 -105q-127 0 -185.5 91.5t-31.5 279.5z" />
<glyph unicode="&#x439;" d="M125 346l94 653h119l-92 -639q-18 -106 -4 -167t45 -85t86 -24q88 0 164 78.5t125 205.5t71 283l47 348h121l-139 -999h-113l8 59l84 340l-4 4l-6 -4q-65 -214 -166.5 -319t-222.5 -105q-127 0 -185.5 91.5t-31.5 279.5zM334 1247l16 119q3 -5 9.5 -13.5t28.5 -30.5 t46.5 -39t64 -30.5t81.5 -13.5q43 0 86.5 13t74.5 31.5t55.5 37.5t37.5 32l12 13l-19 -123q-4 -5 -11 -12.5t-32 -27t-53 -34.5t-72.5 -27t-91.5 -12q-46 0 -87.5 12t-67 29.5t-44 34.5t-26.5 29z" />
<glyph unicode="&#x43a;" horiz-adv-x="876" d="M80 0l131 938q30 217 41 461h119q-7 -224 -39 -449l-51 -366h139q132 168 309 415h135l-352 -460l242 -539h-140q-98 271 -206 485h-142l-67 -485h-119z" />
<glyph unicode="&#x43b;" horiz-adv-x="978" d="M-82 -12l14 100q46 -8 72 -8q34 0 53.5 12t35.5 54t28 126l47 324q36 239 131.5 333.5t284.5 94.5q120 0 290 -31l-139 -993h-119l125 903q-87 17 -174 17q-125 0 -190.5 -68t-91.5 -242l-47 -334q-26 -175 -78 -238t-160 -63q-39 0 -82 13z" />
<glyph unicode="&#x43c;" horiz-adv-x="1206" d="M70 0l149 999h135q97 -321 203 -747l2 -6l4 4q65 116 141.5 265t112.5 222t127 262h158l-129 -999h-117l100 782l-344 -643h-123l-186 643l-117 -782h-116z" />
<glyph unicode="&#x43d;" d="M80 0l139 999h119l-59 -436h442l59 436h119l-139 -999h-119l64 463h-443l-63 -463h-119z" />
<glyph unicode="&#x43e;" horiz-adv-x="976" d="M106 352l44 307q26 184 119.5 274.5t260.5 90.5q174 0 257 -101t57 -276l-41 -301q-50 -371 -381 -371q-176 0 -258.5 99t-57.5 278zM225 342q-18 -126 36.5 -195t164.5 -69q220 0 254 250l47 329q18 126 -37 195.5t-166 69.5t-173 -60.5t-81 -189.5z" />
<glyph unicode="&#x43f;" horiz-adv-x="1003" d="M80 0l139 999h111l-25 -165l-76 -342l4 -5l7 5q72 257 188.5 394.5t239.5 137.5q121 0 169.5 -86.5t18.5 -288.5l-96 -649h-119l98 655q22 143 -5 200.5t-97 57.5q-128 0 -251 -224.5t-175 -598.5l-12 -90h-119z" />
<glyph unicode="&#x440;" horiz-adv-x="980" d="M-4 -379q59 237 110 563l115 815h109l-19 -133l-78 -350l5 -4l6 4q70 253 175 380.5t230 127.5q126 0 183 -100t22 -297l-57 -322q-32 -170 -109 -250t-201 -80q-65 0 -142.5 33.5t-133.5 85.5q-33 -205 -98 -473h-117zM223 182q47 -43 115 -71.5t121 -28.5q89 0 143 56 t78 184l55 294q27 153 -7 226t-107 73q-120 0 -233 -188t-155 -481z" />
<glyph unicode="&#x441;" horiz-adv-x="811" d="M106 348l46 324q49 352 350 352q106 0 227 -37l-18 -106q-110 39 -213 39q-192 0 -228 -240l-43 -330q-37 -268 168 -268q109 0 230 59l-13 -110q-128 -56 -235 -56q-154 0 -225.5 96t-45.5 277z" />
<glyph unicode="&#x442;" horiz-adv-x="1544" d="M80 0l139 999h111l-25 -165l-78 -342l6 -5l7 5q71 257 185 394.5t234 137.5q192 0 195 -221l-74 -311l4 -5l7 5q71 256 185 394t232 138q121 0 170 -86.5t19 -288.5l-97 -649h-118l96 651q19 103 8.5 161t-35.5 79.5t-71 21.5q-123 0 -245 -223.5t-171 -585.5l-14 -104 h-119l96 651q19 103 8.5 161t-35.5 79.5t-71 21.5q-59 0 -121.5 -56.5t-119 -158t-103.5 -256.5t-72 -338l-14 -104h-119z" />
<glyph unicode="&#x443;" d="M96 -356l15 108q166 -51 297 -51q106 0 155 44t66 151l24 163l88 340l-4 4l-6 -4q-65 -214 -166.5 -319t-222.5 -105q-127 0 -185.5 91.5t-31.5 279.5l94 653h119l-92 -639q-18 -106 -4 -167t45 -85t86 -24q88 0 164 78.5t125 205.5t71 283l47 348h121l-153 -1093 q-23 -169 -102 -239t-245 -70q-148 0 -305 47z" />
<glyph unicode="&#x444;" horiz-adv-x="1386" d="M109 346l51 324q58 354 280 354q127 0 236 -129l72 504h118l-69 -494l-76 -303l4 -4l4 2q60 213 148.5 318.5t197.5 105.5q112 0 159.5 -97t12.5 -300l-51 -310q-30 -179 -98.5 -260.5t-177.5 -81.5q-64 0 -126 31t-112 88l-68 -473h-118l63 438l72 289l-4 4l-6 -4 q-112 -373 -336 -373q-107 0 -155.5 93.5t-20.5 277.5zM229 360q-18 -106 -8 -167t34.5 -85t66.5 -24q106 0 188.5 131.5t120.5 370.5l31 211q-93 118 -201 118q-68 0 -114 -58t-68 -195zM694 186q94 -102 201 -102q69 0 114.5 57.5t67.5 190.5l49 278q16 89 17 150 t-13 94.5t-36 47t-56 13.5q-100 0 -192.5 -167.5t-134.5 -446.5z" />
<glyph unicode="&#x445;" horiz-adv-x="827" d="M-61 0l389 516l-228 483h131q118 -253 179 -393l4 -4l6 4q134 181 276 393h146l-363 -483l248 -516h-133q-78 192 -193 430l-4 4l-6 -4q-128 -191 -307 -430h-145z" />
<glyph unicode="&#x446;" horiz-adv-x="1015" d="M125 346l94 653h119l-92 -639q-18 -106 -4 -167t45 -85t86 -24q88 0 164 78.5t125 205.5t71 283l47 348h121l-127 -899h105l-48 -346h-114l35 246h-103l8 59l84 340l-4 4l-6 -4q-65 -214 -166.5 -319t-222.5 -105q-127 0 -185.5 91.5t-31.5 279.5z" />
<glyph unicode="&#x447;" horiz-adv-x="972" d="M133 606l55 393h119l-53 -381q-18 -106 -3.5 -166t46 -82t86.5 -22q126 0 223 148t129 395l15 108h118l-139 -999h-115l45 326l84 309l-4 4l-6 -4q-132 -395 -385 -395q-124 0 -182 91t-33 275z" />
<glyph unicode="&#x448;" horiz-adv-x="1533" d="M125 346l94 653h119l-92 -639q-18 -107 -5 -168t41.5 -84.5t79.5 -23.5q119 0 217.5 155t131.5 386l53 374h119l-92 -639q-18 -107 -5 -168t41.5 -84.5t79.5 -23.5q121 0 218 152t132 405l52 358h118l-139 -999h-112l8 59l84 340l-4 4l-7 -4q-65 -213 -164 -318.5 t-214 -105.5q-85 0 -140.5 49t-68.5 148l53 225l-4 4l-6 -2q-65 -214 -164.5 -319t-214.5 -105q-123 0 -179.5 92t-29.5 279z" />
<glyph unicode="&#x449;" horiz-adv-x="1544" d="M125 346l94 653h119l-92 -639q-18 -107 -5 -168t41.5 -84.5t79.5 -23.5q119 0 217.5 155t131.5 386l53 374h119l-92 -639q-18 -107 -5 -168t41.5 -84.5t79.5 -23.5q121 0 218 152t132 405l52 358h118l-124 -899h104l-47 -346h-115l33 246h-102l8 59l84 340l-4 4l-7 -4 q-65 -213 -164 -318.5t-214 -105.5q-85 0 -140.5 49t-68.5 148l53 225l-4 4l-6 -2q-65 -214 -164.5 -319t-214.5 -105q-123 0 -179.5 92t-29.5 279z" />
<glyph unicode="&#x44a;" horiz-adv-x="1142" d="M109 897l14 102h405l-34 -247l-66 -273l4 -4l6 4q67 153 159 232.5t196 79.5q128 0 187 -100t24 -302l-11 -59q-29 -172 -125 -263.5t-243 -91.5q-172 0 -251.5 97t-54.5 276l76 549h-286zM436 297q-9 -103 40 -161t147 -58q94 0 160.5 61.5t90.5 184.5l9 43 q30 165 -7.5 240t-123.5 75q-100 0 -194 -114t-122 -271z" />
<glyph unicode="&#x44b;" horiz-adv-x="1323" d="M129 348l90 651h119l-35 -247l-65 -273l4 -4l6 4q65 153 157 232.5t197 79.5q128 0 187 -100t24 -302l-10 -59q-29 -172 -126 -263.5t-245 -91.5q-170 0 -249 97t-54 276zM246 297q-9 -103 39.5 -161t146.5 -58q95 0 161.5 61.5t90.5 184.5l8 43q30 165 -7.5 240 t-123.5 75q-100 0 -193.5 -113.5t-121.5 -271.5zM958 0l140 999h119l-140 -999h-119z" />
<glyph unicode="&#x44c;" horiz-adv-x="946" d="M129 348l90 651h119l-35 -247l-65 -273l4 -4l6 4q65 153 157 232.5t197 79.5q128 0 187 -100t24 -302l-10 -59q-29 -172 -126 -263.5t-245 -91.5q-170 0 -249 97t-54 276zM246 297q-9 -103 39.5 -161t146.5 -58q95 0 161.5 61.5t90.5 184.5l8 43q30 165 -7.5 240 t-123.5 75q-100 0 -193.5 -113.5t-121.5 -271.5z" />
<glyph unicode="&#x44d;" horiz-adv-x="808" d="M47 41l16 104q143 -65 261 -65q76 0 121.5 49t62.5 162l22 172h-389l15 100h387l12 74q19 149 -26 216t-146 67q-87 0 -219 -33l14 108q141 29 223 29q152 0 224 -103t45 -305l-43 -319q-23 -169 -96.5 -245.5t-206.5 -76.5q-60 0 -137 18.5t-140 47.5z" />
<glyph unicode="&#x44e;" horiz-adv-x="1327" d="M80 0l131 938q32 216 43 461h119q-7 -219 -41 -449l-53 -387h245l15 99q26 188 113 275t249 87q163 0 240.5 -99.5t50.5 -283.5l-41 -301q-26 -187 -114 -276t-249 -89q-163 0 -240.5 100t-51.5 283l14 105h-246l-65 -463h-119zM614 342q-18 -126 33 -195t148 -69 q101 0 158.5 60.5t76.5 189.5l45 331q18 130 -29 196.5t-151 66.5t-160.5 -60t-75.5 -190z" />
<glyph unicode="&#x44f;" horiz-adv-x="948" d="M-6 0l295 424q-87 34 -128.5 120t-25.5 201q19 132 117 205.5t262 73.5h336l-143 -1024h-119l55 397q-190 0 -233 2q-139 -184 -273 -399h-143zM254 737q-18 -108 35 -172.5t164 -64.5h202l58 422h-195q-239 0 -264 -185z" />
<glyph unicode="&#x451;" horiz-adv-x="905" d="M111 373l24 178q33 234 145 353.5t273 119.5q128 0 200 -65.5t70 -178.5q-3 -165 -152 -278.5t-444 -134.5l-4 -29q-18 -138 26.5 -197t156.5 -59q127 0 284 80l-18 -115q-69 -32 -147.5 -52t-137.5 -20q-170 0 -237.5 96.5t-38.5 301.5zM240 444q131 16 268 62 q194 115 194 264q0 71 -42 111.5t-113 40.5q-104 0 -186 -94.5t-107 -272.5zM330 1260l4 36q9 66 84 66q40 0 60 -20t16 -56l-7 -37q-9 -63 -79 -63q-40 0 -62 20.5t-16 53.5zM627 1260l4 36q9 66 84 66q39 0 59.5 -20t16.5 -56l-7 -37q-9 -63 -79 -63q-40 0 -62 20.5 t-16 53.5z" />
<glyph unicode="&#x452;" d="M90 0l131 938q19 147 25 219h-137l14 100h131q4 46 8 142h119l-6 -142h282l-14 -100h-276q-5 -67 -19 -151l-12 -91l-96 -423l4 -5l6 5q72 257 188.5 394.5t239.5 137.5q121 0 169.5 -86.5t18.5 -288.5l-118 -803q-19 -133 -77.5 -191t-174.5 -58q-80 0 -146 24l15 105 q73 -25 133 -25q59 0 89 29t42 106l121 819q21 143 -6.5 200.5t-96.5 57.5q-81 0 -166 -97t-154.5 -279t-99.5 -408l-18 -129h-119z" />
<glyph unicode="&#x453;" horiz-adv-x="802" d="M37 266l4 25q12 76 61 131.5t146 95.5l209 88q46 18 74.5 35.5t44.5 38.5t23 41.5t11 52.5q9 72 -32.5 109t-141.5 37q-92 0 -252 -41l11 114q152 31 260 31q155 0 223.5 -67.5t50.5 -190.5l-4 -23q-9 -78 -57 -132.5t-154 -98.5l-221 -94q-69 -29 -100 -65.5t-37 -86.5 l-4 -22q-9 -76 41 -118t161 -42q102 0 256 53l-20 -117q-149 -45 -252 -45q-169 0 -246 77t-55 214zM387 1118l174 260h133l-202 -260h-105z" />
<glyph unicode="&#x454;" horiz-adv-x="821" d="M106 348l46 324q49 352 350 352q106 0 227 -37l-18 -106q-110 39 -213 39q-192 0 -228 -240l-14 -117h389l-14 -100h-389l-15 -113q-37 -268 168 -268q109 0 230 59l-13 -110q-128 -56 -235 -56q-154 0 -225.5 96t-45.5 277z" />
<glyph unicode="&#x455;" horiz-adv-x="798" d="M63 49l21 113q78 -42 188 -76q50 -6 88 -6q86 0 132 41t59 123q22 124 -98 182l-174 84q-91 44 -129.5 119.5t-20.5 167.5l4 26q40 201 309 201q100 0 236 -39l-16 -113q-12 4 -47.5 16t-60 20t-44.5 12q-46 4 -80 4q-61 0 -101 -16.5t-60 -46t-27 -75.5 q-19 -124 104 -182l172 -84q86 -43 125 -113t27 -159l-4 -29q-18 -115 -96 -179.5t-210 -64.5q-149 0 -297 74z" />
<glyph unicode="&#x456;" horiz-adv-x="444" d="M80 0l139 999h119l-139 -999h-119zM225 1262l6 38q9 68 86 68q42 0 63 -21t17 -59l-6 -39q-9 -65 -86 -65q-41 0 -62.5 20.5t-17.5 57.5z" />
<glyph unicode="&#x457;" horiz-adv-x="444" d="M76 1260l4 36q9 66 84 66q40 0 60 -20t16 -56l-7 -37q-9 -63 -79 -63q-40 0 -62 20.5t-16 53.5zM80 0l139 999h119l-139 -999h-119zM373 1260l4 36q9 66 84 66q39 0 59.5 -20t16.5 -56l-7 -37q-9 -63 -79 -63q-40 0 -62 20.5t-16 53.5z" />
<glyph unicode="&#x458;" horiz-adv-x="444" d="M-223 -379l14 105q72 -25 135 -25q58 0 88.5 29.5t40.5 105.5l164 1163h119l-162 -1153q-19 -133 -78.5 -191t-175.5 -58q-79 0 -145 24zM219 1262l6 38q9 68 86 68q42 0 63 -21t17 -59l-6 -39q-9 -65 -86 -65q-41 0 -62.5 20.5t-17.5 57.5z" />
<glyph unicode="&#x459;" horiz-adv-x="1486" d="M-82 -12l14 100q46 -8 72 -8q34 0 53.5 12t35.5 54t28 126l47 324q36 239 131.5 333.5t284.5 94.5q125 0 288 -29l-34 -243l-66 -273l4 -4l6 4q65 153 157.5 232.5t197.5 79.5q128 0 187 -100t24 -302l-11 -59q-29 -172 -125.5 -263.5t-244.5 -91.5q-170 0 -249 97 t-54 276l75 555q-83 17 -172 17q-125 0 -190.5 -68t-91.5 -242l-47 -334q-25 -175 -78.5 -238t-159.5 -63q-39 0 -82 13zM780 297q-9 -103 40 -161t147 -58q95 0 161.5 61.5t90.5 184.5l8 43q30 165 -7.5 240t-123.5 75q-100 0 -194 -114t-122 -271z" />
<glyph unicode="&#x45a;" horiz-adv-x="1495" d="M80 0l139 999h119l-59 -436h419l62 436h119l-35 -247l-66 -273l4 -4l6 4q65 153 157.5 232.5t197.5 79.5q128 0 187 -100t24 -302l-11 -59q-29 -172 -125.5 -263.5t-244.5 -91.5q-170 0 -249 98t-54 275l16 115h-422l-65 -463h-119zM786 297q-9 -103 40 -161t147 -58 q95 0 161.5 61.5t90.5 184.5l8 43q30 165 -7.5 240t-123.5 75q-100 0 -194 -114t-122 -271z" />
<glyph unicode="&#x45b;" d="M90 0l131 938q19 147 25 219h-137l14 100h131q4 46 8 142h119l-6 -142h282l-14 -100h-276q-15 -124 -19 -151l-12 -91l-96 -423l4 -5l6 5q72 257 188.5 394.5t239.5 137.5q121 0 169.5 -86.5t18.5 -288.5l-96 -649h-119l99 655q22 143 -5.5 200.5t-97.5 57.5 q-81 0 -166 -97t-154.5 -279t-99.5 -408l-18 -129h-119z" />
<glyph unicode="&#x45c;" horiz-adv-x="872" d="M80 0l141 999h119l-59 -415h139q132 168 309 415h135l-352 -460l242 -539h-140q-98 271 -206 485h-142l-67 -485h-119zM426 1118l174 260h133l-203 -260h-104z" />
<glyph unicode="&#x45e;" d="M96 -356l15 108q166 -51 297 -51q106 0 155 44t66 151l24 163l88 340l-4 4l-6 -4q-65 -214 -166.5 -319t-222.5 -105q-127 0 -185.5 91.5t-31.5 279.5l94 653h119l-92 -639q-18 -106 -4 -167t45 -85t86 -24q88 0 164 78.5t125 205.5t71 283l47 348h121l-153 -1093 q-23 -169 -102 -239t-245 -70q-148 0 -305 47zM336 1247l16 119q3 -5 9.5 -13.5t28.5 -30.5t46.5 -39t64 -30.5t81.5 -13.5q43 0 86.5 13t74.5 31.5t55.5 37.5t37.5 32l12 13l-19 -123q-4 -5 -11 -12.5t-32 -27t-53 -34.5t-72.5 -27t-91.5 -12q-46 0 -87.5 12t-67 29.5 t-44 34.5t-26.5 29z" />
<glyph unicode="&#x45f;" horiz-adv-x="997" d="M80 0l139 999h119l-125 -901h434l127 901h119l-139 -999h-277l-35 -246h-112l35 246h-285z" />
<glyph unicode="&#x462;" horiz-adv-x="1366" d="M147 1233l15 108h925l-14 -108h-403l-60 -479q133 20 232 20q218 0 327 -105.5t86 -287.5l-4 -31q-45 -375 -497 -375q-138 0 -357 23l154 1235h-404zM530 96q120 -18 226 -18q174 0 266 71t111 211l2 23q19 141 -62 215t-260 74q-53 0 -215 -17z" />
<glyph unicode="&#x463;" horiz-adv-x="952" d="M84 1042l14 101h144l22 160h119l-23 -160h273l-15 -101h-272l-41 -290l-67 -273l4 -4l6 4q66 153 159 232.5t197 79.5q128 0 187 -100t24 -302l-10 -59q-29 -172 -126 -263.5t-245 -91.5q-170 0 -249 97t-54 276l96 694h-143zM246 297q-9 -103 39.5 -161t146.5 -58 q95 0 161.5 61.5t90.5 184.5l8 43q30 165 -7.5 240t-123.5 75q-100 0 -193.5 -113.5t-121.5 -271.5z" />
<glyph unicode="&#x472;" horiz-adv-x="1179" d="M133 422l64 518q28 224 139 325t328 101q216 0 319.5 -117t77.5 -325l-64 -523q-27 -215 -140.5 -320.5t-326.5 -105.5q-219 0 -321 117t-76 330zM250 406q-19 -159 56 -241.5t231 -82.5q154 0 237 75.5t103 235.5l28 240h-629zM291 741h629l24 197q20 162 -55 242 t-236 80q-153 0 -235.5 -74t-102.5 -236z" />
<glyph unicode="&#x473;" horiz-adv-x="976" d="M106 352l44 307q26 184 119.5 274.5t260.5 90.5q174 0 257 -101t57 -276l-41 -301q-50 -371 -381 -371q-176 0 -258.5 99t-57.5 278zM223 342q-17 -127 37.5 -195.5t163.5 -68.5q222 0 256 250l18 133h-458zM254 559h459l14 98q17 126 -38 195.5t-165 69.5 q-113 0 -174 -60t-80 -190z" />
<glyph unicode="&#x474;" horiz-adv-x="1114" d="M123 1341h121q120 -584 219 -1222q233 503 407 962q34 89 63.5 143t63 86.5t69.5 44t87 11.5q64 0 125 -18l-12 -101q-74 17 -105 17q-50 0 -82 -34t-82 -151l-460 -1079h-160z" />
<glyph unicode="&#x475;" horiz-adv-x="911" d="M88 999h117q89 -438 155 -895l5 -4l6 4q120 249 286 629q41 96 73 152t65.5 87.5t65 41.5t79.5 10q40 0 98 -16l-14 -103q-56 17 -88 17q-30 0 -49.5 -11.5t-46 -52.5t-68.5 -129l-342 -729h-149z" />
<glyph unicode="&#x490;" horiz-adv-x="892" d="M94 0l164 1341h541l32 267h119l-47 -375h-541l-149 -1233h-119z" />
<glyph unicode="&#x491;" horiz-adv-x="739" d="M80 0l139 999h402l34 246h115l-49 -346h-395l-127 -899h-119z" />
<glyph unicode="&#x492;" horiz-adv-x="903" d="M43 629l12 108h140l75 604h660l-15 -108h-540l-62 -496h297l-12 -108h-297l-76 -629h-119l76 629h-139z" />
<glyph unicode="&#x493;" horiz-adv-x="749" d="M14 475l15 100h143l59 424h517l-15 -100h-397l-45 -324h282l-14 -100h-283l-65 -475h-119l66 475h-144z" />
<glyph unicode="&#x496;" horiz-adv-x="1613" d="M-16 0l432 694l-250 647h125q101 -252 223 -600h250l76 600h118l-75 -600h241q220 340 375 600h131l-407 -651l219 -581h102l-45 -375h-117l35 266h-76q-102 328 -227 633h-244l-75 -633h-119l76 633h-246q-187 -318 -387 -633h-135z" />
<glyph unicode="&#x497;" horiz-adv-x="1241" d="M-51 0l364 543l-198 456h123q38 -88 172 -415h151l51 354q28 200 39 461h119q-11 -233 -41 -449l-51 -366h143q168 220 293 415h129l-328 -456l179 -443h92l-47 -346h-115l33 246h-51q-107 301 -189 485h-151l-68 -485h-117l66 485h-146q-166 -262 -323 -485h-129z" />
<glyph unicode="&#x498;" horiz-adv-x="960" d="M31 53l18 113q56 -25 117 -43.5t119 -28.5t106 -10q93 0 157 28.5t101 85t49 142.5l2 27q15 126 -60.5 198t-225.5 72h-166l12 102h166q140 0 217.5 63.5t95.5 182.5l4 23q17 120 -54 186t-226 66q-127 0 -279 -46l6 111q175 41 287 41q210 0 309.5 -95.5t75.5 -262.5 l-4 -31q-14 -103 -80.5 -181t-167.5 -106q106 -31 163.5 -120t45.5 -214l-4 -32q-8 -79 -37.5 -142t-80.5 -108t-124.5 -70.5t-166.5 -28.5l-27 -61h10q71 0 103.5 -47t21.5 -123q-21 -147 -178 -147q-58 0 -121 18l12 84q54 -21 105 -21q42 0 61 19.5t25 62.5q15 90 -86 90 h-58l5 35l45 95q-157 14 -293 73z" />
<glyph unicode="&#x499;" horiz-adv-x="712" d="M-66 37l15 102q58 -24 138.5 -42.5t139.5 -18.5q96 0 142.5 44t60.5 142q12 90 -38.5 142.5t-153.5 52.5h-166l12 98h164q100 0 162 47.5t73 124.5l2 23q12 83 -41 128.5t-170 45.5q-75 0 -200 -27l10 102q132 23 205 23q168 0 248 -72t65 -198l-4 -23q-9 -76 -64.5 -137 t-144.5 -88q81 -25 125.5 -92.5t34.5 -155.5q-29 -263 -297 -281l-29 -63h13q71 0 103 -47t21 -123q-21 -147 -178 -147q-58 0 -121 18l11 84q54 -21 106 -21q42 0 61 19.5t25 62.5q15 90 -86 90h-57l4 35l43 95q-117 9 -234 57z" />
<glyph unicode="&#x49a;" horiz-adv-x="1048" d="M94 0l164 1341h119l-74 -600h186q155 196 445 600h139l-483 -643l319 -589h105l-45 -375h-117l35 266h-74q-148 332 -317 633h-207l-76 -633h-119z" />
<glyph unicode="&#x49b;" horiz-adv-x="872" d="M80 0l141 999h119l-59 -415h139q132 168 309 415h135l-352 -460l199 -439h98l-49 -346h-115l35 246h-66q-98 271 -206 485h-142l-67 -485h-119z" />
<glyph unicode="&#x49c;" horiz-adv-x="1077" d="M94 0l164 1341h119l-74 -600h94l35 283h94l-34 -276h32q141 179 441 593h137l-484 -643l381 -698h-145q-170 354 -330 633h-45l-53 -428h-94l53 428h-96l-76 -633h-119z" />
<glyph unicode="&#x49d;" horiz-adv-x="921" d="M80 0l139 999h119l-57 -415h67l37 256h82l-35 -256h23q180 231 313 415h139l-366 -469l258 -530h-137q-117 281 -224 481h-20l-37 -256h-82l35 260h-70l-65 -485h-119z" />
<glyph unicode="&#x4a0;" horiz-adv-x="1300" d="M127 1229l14 112h488l-74 -600h186q136 172 447 600h137l-483 -643l381 -698h-146q-159 332 -329 633h-205l-78 -633h-119l150 1229h-369z" />
<glyph unicode="&#x4a1;" horiz-adv-x="1060" d="M109 897l14 102h405l-59 -415h139q183 233 310 415h137l-355 -460l244 -539h-139q-98 263 -207 485h-141l-68 -485h-119l125 897h-286z" />
<glyph unicode="&#x4a2;" horiz-adv-x="1187" d="M94 0l164 1341h119l-74 -593h612l76 593h119l-154 -1232h123l-45 -375h-119l35 266h-123l76 639h-614l-76 -639h-119z" />
<glyph unicode="&#x4a3;" horiz-adv-x="1015" d="M80 0l139 999h119l-59 -436h442l59 436h119l-127 -899h102l-47 -346h-114l35 246h-107l64 463h-443l-63 -463h-119z" />
<glyph unicode="&#x4aa;" horiz-adv-x="974" d="M133 416l64 522q15 118 46.5 200t84 132.5t122 73t164.5 22.5q65 0 149.5 -14.5t154.5 -38.5l-17 -113q-71 26 -151.5 43t-143.5 17q-86 0 -143.5 -29t-95 -99t-50.5 -186l-67 -553q-20 -160 39 -233.5t198 -73.5q126 0 295 72l-12 -117q-46 -21 -106 -37 q-78 -32 -125.5 -90.5t-55.5 -130.5q-15 -92 88 -92q30 0 72 10l-12 -94q-44 -10 -92 -10q-90 0 -132.5 43.5t-31.5 117.5l4 23q6 54 41.5 106t89.5 90q-12 -2 -39 -2q-392 0 -338 441z" />
<glyph unicode="&#x4ab;" horiz-adv-x="811" d="M106 348l46 324q26 182 114.5 267t235.5 85q106 0 227 -37l-18 -106q-110 39 -213 39q-92 0 -151 -59t-77 -181l-43 -330q-37 -268 168 -268q109 0 230 59l-13 -110q-54 -21 -71 -27q-77 -31 -125 -90.5t-56 -130.5q-12 -92 91 -92q29 0 71 10l-12 -94q-44 -10 -94 -10 q-89 0 -131 43.5t-31 117.5l2 23q7 55 42.5 106.5t88.5 87.5h-22q-147 5 -216 101t-43 272z" />
<glyph unicode="&#x4ae;" horiz-adv-x="970" d="M123 1341h131q131 -420 223 -751q200 345 410 751h141l-502 -880l-55 -461h-119l56 461z" />
<glyph unicode="&#x4af;" horiz-adv-x="884" d="M88 999h121q114 -578 160 -870l4 -4l6 4q110 227 152.5 317t109.5 237.5t137 315.5h133l-489 -999l-55 -379h-119l55 379z" />
<glyph unicode="&#x4b0;" horiz-adv-x="970" d="M123 1341h131q131 -420 223 -751q200 345 410 751h141l-473 -827h195l-13 -108h-217l-49 -406h-119l49 406h-219l13 108h194z" />
<glyph unicode="&#x4b1;" horiz-adv-x="884" d="M88 999h121q114 -578 160 -870l4 -4l6 4q110 227 152.5 317t109.5 237.5t137 315.5h133l-440 -899h139l-12 -100h-176l-55 -379h-119l55 379h-180l12 100h146z" />
<glyph unicode="&#x4b2;" horiz-adv-x="1028" d="M-39 0l490 692l-301 649h133q129 -276 249 -555q234 320 390 555h143l-463 -653l270 -579h119l-45 -375h-119l35 266h-80q-108 261 -268 590q-227 -338 -410 -590h-143z" />
<glyph unicode="&#x4b3;" horiz-adv-x="827" d="M-61 0l389 516l-228 483h131q118 -253 179 -393l4 -4l6 4q134 181 276 393h146l-363 -483l201 -416h100l-47 -346h-115l33 246h-57q-78 192 -193 430l-4 4l-6 -4q-128 -191 -307 -430h-145z" />
<glyph unicode="&#x4b8;" horiz-adv-x="1153" d="M180 891l58 450h118l-57 -454q-18 -142 40 -221t183 -93l56 451h94l-56 -455q125 6 250 47l88 725h119l-164 -1341h-118l63 516q-156 -42 -250 -47l-33 -264h-94l33 264q-181 11 -267.5 118t-62.5 304z" />
<glyph unicode="&#x4b9;" horiz-adv-x="940" d="M94 606l56 393h118l-53 -381q-18 -106 -3.5 -166t46 -82t86.5 -22h14l56 389h84l-52 -362q91 52 157.5 187.5t92.5 328.5l15 108h120l-141 -999h-115l46 326l84 309l-5 4l-6 -4q-95 -288 -262 -367l-20 -145h-84l16 119q-12 -2 -35 -2q-124 0 -182 91t-33 275z" />
<glyph unicode="&#x4ba;" horiz-adv-x="1116" d="M94 0l164 1341h119l-66 -532q177 65 320 65q192 0 284.5 -112t65.5 -330l-51 -432h-119l51 436q21 174 -44 255t-210 81q-73 0 -159 -18.5t-150 -44.5l-86 -709h-119z" />
<glyph unicode="&#x4bb;" horiz-adv-x="985" d="M80 0l131 938q30 217 41 461h119q-6 -206 -33 -393l-12 -97l-103 -463l4 -4l6 4q76 223 183 329t229 106q120 0 170 -88.5t19 -290.5l-74 -502h-119l76 508q22 145 -5 203.5t-98 58.5q-61 0 -122 -43.5t-117.5 -127.5t-101 -222t-66.5 -311l-8 -66h-119z" />
<glyph unicode="&#x4c0;" horiz-adv-x="454" d="M94 0l164 1341h119l-164 -1341h-119z" />
<glyph unicode="&#x4cb;" horiz-adv-x="1153" d="M182 891l56 450h118l-55 -454q-20 -158 52.5 -238t226.5 -80q145 0 288 47l88 725h119l-149 -1232h121l-46 -375h-118l35 266h-125l63 516q-188 -49 -299 -49q-203 0 -302 107.5t-73 316.5z" />
<glyph unicode="&#x4cc;" horiz-adv-x="985" d="M133 606l55 393h119l-53 -381q-18 -106 -3.5 -166t46 -82t86.5 -22q126 0 223 148t129 395l15 108h118l-123 -899h103l-47 -346h-115l33 246h-105l45 326l84 309l-4 4l-6 -4q-132 -395 -385 -395q-123 0 -181.5 91.5t-33.5 274.5z" />
<glyph unicode="&#x4cf;" horiz-adv-x="444" d="M80 0l139 999h119l-139 -999h-119z" />
<glyph unicode="&#x4d8;" horiz-adv-x="1159" d="M133 418l41 323h725l25 197q21 185 -42.5 255.5t-240.5 70.5q-141 0 -313 -43l10 108q192 37 315 37q234 0 325 -103t62 -343l-63 -514q-28 -219 -139.5 -325t-317.5 -106q-208 0 -310.5 115t-76.5 328zM250 408q-20 -157 53.5 -241.5t218.5 -84.5q148 0 231 74.5 t101 232.5l31 244h-606z" />
<glyph unicode="&#x4d9;" horiz-adv-x="964" d="M111 360l26 187h561l17 108q17 132 -40 197.5t-192 65.5q-114 0 -270 -41l10 110q169 37 275 37q189 0 274 -96.5t59 -276.5l-43 -303q-25 -188 -112.5 -280.5t-249.5 -92.5q-177 0 -259 99.5t-56 285.5zM225 344q-17 -129 34.5 -197.5t166.5 -68.5q105 0 164 62.5 t78 193.5l16 115h-442z" />
<glyph unicode="&#x4e2;" horiz-adv-x="1187" d="M94 0l164 1341h119l-139 -1132q343 494 739 1132h133l-164 -1341h-119l140 1133l-744 -1133h-129zM481 1473l15 108h448l-14 -108h-449z" />
<glyph unicode="&#x4e3;" d="M125 346l94 653h119l-92 -639q-18 -106 -4 -167t45 -85t86 -24q88 0 164 78.5t125 205.5t71 283l47 348h121l-139 -999h-113l8 59l84 340l-4 4l-6 -4q-65 -214 -166.5 -319t-222.5 -105q-127 0 -185.5 91.5t-31.5 279.5zM375 1227l14 110h412l-15 -110h-411z" />
<glyph unicode="&#x4e8;" horiz-adv-x="1179" d="M133 422l64 518q28 224 139 325t328 101q216 0 319.5 -117t77.5 -325l-64 -523q-27 -215 -140.5 -320.5t-326.5 -105.5q-219 0 -321 117t-76 330zM250 406q-19 -159 56 -241.5t231 -82.5q154 0 237 75.5t103 235.5l28 240h-629zM291 741h629l24 197q20 162 -55 242 t-236 80q-153 0 -235.5 -74t-102.5 -236z" />
<glyph unicode="&#x4e9;" horiz-adv-x="976" d="M106 352l44 307q26 184 119.5 274.5t260.5 90.5q174 0 257 -101t57 -276l-41 -301q-50 -371 -381 -371q-176 0 -258.5 99t-57.5 278zM223 342q-17 -127 37.5 -195.5t163.5 -68.5q222 0 256 250l18 133h-458zM254 559h459l14 98q17 126 -38 195.5t-165 69.5 q-113 0 -174 -60t-80 -190z" />
<glyph unicode="&#x4ee;" horiz-adv-x="976" d="M121 1341h131q135 -422 235 -774q181 316 420 774h135l-757 -1341h-123l254 449zM360 1473l15 108h448l-14 -108h-449z" />
<glyph unicode="&#x4ef;" d="M96 -356l15 108q166 -51 297 -51q106 0 155 44t66 151l24 163l88 340l-4 4l-6 -4q-65 -214 -166.5 -319t-222.5 -105q-127 0 -185.5 91.5t-31.5 279.5l94 653h119l-92 -639q-18 -106 -4 -167t45 -85t86 -24q88 0 164 78.5t125 205.5t71 283l47 348h121l-153 -1093 q-23 -169 -102 -239t-245 -70q-148 0 -305 47zM383 1227l14 110h412l-14 -110h-412z" />
<glyph unicode="&#x2000;" horiz-adv-x="841" />
<glyph unicode="&#x2001;" horiz-adv-x="1683" />
<glyph unicode="&#x2002;" horiz-adv-x="841" />
<glyph unicode="&#x2003;" horiz-adv-x="1683" />
<glyph unicode="&#x2004;" horiz-adv-x="561" />
<glyph unicode="&#x2005;" horiz-adv-x="420" />
<glyph unicode="&#x2006;" horiz-adv-x="280" />
<glyph unicode="&#x2007;" horiz-adv-x="280" />
<glyph unicode="&#x2008;" horiz-adv-x="210" />
<glyph unicode="&#x2009;" horiz-adv-x="336" />
<glyph unicode="&#x200a;" horiz-adv-x="93" />
<glyph unicode="&#x2010;" horiz-adv-x="716" d="M141 557l15 96h422l-15 -96h-422z" />
<glyph unicode="&#x2011;" horiz-adv-x="716" d="M141 557l15 96h422l-15 -96h-422z" />
<glyph unicode="&#x2012;" horiz-adv-x="716" d="M141 557l15 96h422l-15 -96h-422z" />
<glyph unicode="&#x2013;" horiz-adv-x="1249" d="M141 557l15 96h954l-14 -96h-955z" />
<glyph unicode="&#x2014;" horiz-adv-x="1454" d="M141 557l15 96h1159l-15 -96h-1159z" />
<glyph unicode="&#x2018;" horiz-adv-x="419" d="M211 1169l4 39q4 26 23 74l65 135h92l-57 -153q49 -16 43 -76l-6 -37q-8 -64 -88 -64q-41 0 -61.5 22t-14.5 60z" />
<glyph unicode="&#x2019;" horiz-adv-x="419" d="M215 1087l57 152q-49 15 -43 78l7 37q8 63 86 63q43 0 63 -22t14 -60l-4 -39q-5 -33 -24 -73l-64 -136h-92z" />
<glyph unicode="&#x201a;" horiz-adv-x="419" d="M37 -172l57 152q-49 15 -43 77l6 37q9 64 86 64q43 0 63.5 -22t14.5 -60l-4 -39q-5 -35 -24 -74l-64 -135h-92z" />
<glyph unicode="&#x201c;" horiz-adv-x="663" d="M211 1169l4 39q4 26 23 74l65 135h92l-57 -153q49 -16 43 -76l-6 -37q-8 -64 -88 -64q-41 0 -61.5 22t-14.5 60zM451 1169l4 39q4 30 22 74l66 135h92l-57 -153q49 -16 43 -76l-7 -37q-8 -64 -88 -64q-41 0 -61 22t-14 60z" />
<glyph unicode="&#x201d;" horiz-adv-x="663" d="M215 1087l57 152q-49 15 -43 78l7 37q8 63 86 63q43 0 63 -22t14 -60l-4 -39q-5 -33 -24 -73l-64 -136h-92zM457 1087l57 152q-49 15 -43 78l6 37q8 63 86 63q43 0 63.5 -22t14.5 -60l-4 -39q-4 -30 -25 -73l-63 -136h-92z" />
<glyph unicode="&#x201e;" horiz-adv-x="663" d="M37 -172l57 152q-49 15 -43 77l6 37q9 64 86 64q43 0 63.5 -22t14.5 -60l-4 -39q-5 -35 -24 -74l-64 -135h-92zM279 -172l57 152q-49 15 -43 77l6 37q9 64 86 64q43 0 63.5 -22t14.5 -60l-4 -39q-5 -32 -25 -74l-63 -135h-92z" />
<glyph unicode="&#x2026;" horiz-adv-x="1017" d="M47 51l4 35q5 38 26 56t64 18q42 0 64.5 -21.5t17.5 -56.5l-6 -41q-9 -66 -88 -66q-43 0 -65 21.5t-17 54.5zM344 51l4 35q5 38 26 56t64 18q42 0 64.5 -21.5t17.5 -56.5l-6 -41q-9 -66 -88 -66q-43 0 -65 21.5t-17 54.5zM641 51l4 35q5 38 26 56t64 18q42 0 64.5 -21.5 t17.5 -56.5l-6 -41q-9 -66 -88 -66q-43 0 -65 21.5t-17 54.5z" />
<glyph unicode="&#x202f;" horiz-adv-x="336" />
<glyph unicode="&#x2039;" horiz-adv-x="620" d="M150 549l253 348h121l-239 -348l139 -348h-121z" />
<glyph unicode="&#x203a;" horiz-adv-x="620" d="M100 201l240 348l-141 348h120l154 -348l-252 -348h-121z" />
<glyph unicode="&#x205f;" horiz-adv-x="420" />
<glyph unicode="&#x20ac;" horiz-adv-x="907" d="M18 420l45 102h115l25 168h-148l45 103h115l6 41q33 235 126.5 330.5t275.5 95.5q134 0 295 -52l-19 -112q-155 57 -285 57q-122 0 -185.5 -70t-86.5 -243l-8 -47h411l-43 -103h-383l-22 -168h412l-45 -102h-379l-6 -35q-20 -157 37 -228t188 -71q116 0 282 64l-10 -117 q-158 -58 -289 -58q-372 0 -327 416l4 29h-146z" />
<glyph unicode="&#x2122;" horiz-adv-x="1593" d="M213 1311l12 88h574l-13 -88h-233l-82 -594h-106l84 594h-236zM823 717l111 682h121q60 -208 131 -514q134 240 268 514h133l-88 -682h-102l69 510l-243 -447h-99l-116 447l-82 -510h-103z" />
<glyph unicode="&#x25fc;" horiz-adv-x="1003" d="M0 0v1004h1004v-1004h-1004z" />
</font>
</defs>
</svg>
